<svg width="24" height="26" viewBox="0 0 24 26" fill="none" xmlns="http://www.w3.org/2000/svg">
<path d="M4.00265 0.40635C3.40946 0.0271833 2.69355 -0.0879209 2.01855 0.0678082L13.8276 11.7949L17.6526 7.99645L4.00265 0.40635Z" fill="#9166F0"/>
<path d="M0.552361 1.02252C0.225089 1.45586 0.0341797 1.99075 0.0341797 2.55273V23.4408C0.0341797 24.0027 0.225089 24.5376 0.552361 24.971L12.6137 13.0001L0.552361 1.02252Z" fill="#9166F0"/>
<path d="M22.6501 10.7725L19.2137 8.86309L15.041 13.0001L19.2137 17.1438L22.6569 15.2344C23.4819 14.774 23.9728 13.9412 23.9728 13.0068C23.966 12.0589 23.4751 11.2261 22.6501 10.7725Z" fill="#9166F0"/>
<path d="M13.8276 14.2054L2.01855 25.9325C2.20946 25.9799 2.40719 26.0002 2.60492 26.0002C3.08901 26.0002 3.57992 25.8648 4.00265 25.5872L17.6526 18.0038L13.8276 14.2054Z" fill="#9166F0"/>
</svg>
