<svg width="153" height="32" viewBox="0 0 153 32" fill="none" xmlns="http://www.w3.org/2000/svg">
<path d="M53.24 22L52.06 18.76H46.3L45.12 22H42.2L47.64 7.82H50.84L56.24 22H53.24ZM49.18 10.88L47.22 16.24H51.14L49.18 10.88ZM60.4745 25.8H57.8145V12.16H60.3945V13.36C60.6345 12.96 61.0212 12.6267 61.5545 12.36C62.0879 12.08 62.7079 11.94 63.4145 11.94C64.8145 11.94 65.9212 12.42 66.7345 13.38C67.5479 14.3267 67.9545 15.5533 67.9545 17.06C67.9545 18.5667 67.5212 19.8067 66.6545 20.78C65.8012 21.7533 64.6879 22.24 63.3145 22.24C62.0079 22.24 61.0612 21.84 60.4745 21.04V25.8ZM64.6345 19.12C65.1012 18.6133 65.3345 17.9333 65.3345 17.08C65.3345 16.2267 65.1012 15.5533 64.6345 15.06C64.1812 14.5667 63.6012 14.32 62.8945 14.32C62.1879 14.32 61.6012 14.5733 61.1345 15.08C60.6679 15.5733 60.4345 16.24 60.4345 17.08C60.4345 17.92 60.6679 18.5933 61.1345 19.1C61.6012 19.6067 62.1879 19.86 62.8945 19.86C63.6012 19.86 64.1812 19.6133 64.6345 19.12ZM72.7206 25.8H70.0606V12.16H72.6406V13.36C72.8806 12.96 73.2673 12.6267 73.8006 12.36C74.334 12.08 74.954 11.94 75.6606 11.94C77.0606 11.94 78.1673 12.42 78.9806 13.38C79.794 14.3267 80.2006 15.5533 80.2006 17.06C80.2006 18.5667 79.7673 19.8067 78.9006 20.78C78.0473 21.7533 76.934 22.24 75.5606 22.24C74.254 22.24 73.3073 21.84 72.7206 21.04V25.8ZM76.8806 19.12C77.3473 18.6133 77.5806 17.9333 77.5806 17.08C77.5806 16.2267 77.3473 15.5533 76.8806 15.06C76.4273 14.5667 75.8473 14.32 75.1406 14.32C74.434 14.32 73.8473 14.5733 73.3806 15.08C72.914 15.5733 72.6806 16.24 72.6806 17.08C72.6806 17.92 72.914 18.5933 73.3806 19.1C73.8473 19.6067 74.434 19.86 75.1406 19.86C75.8473 19.86 76.4273 19.6133 76.8806 19.12ZM84.9667 22H82.3067V7.52H84.9667V22ZM89.7545 15.96H94.1545C94.1279 15.4133 93.9279 14.9533 93.5545 14.58C93.1945 14.2067 92.6612 14.02 91.9545 14.02C91.3145 14.02 90.7945 14.22 90.3945 14.62C89.9945 15.02 89.7812 15.4667 89.7545 15.96ZM94.4145 18.52L96.6345 19.18C96.3679 20.0867 95.8412 20.8333 95.0545 21.42C94.2812 22.0067 93.3145 22.3 92.1545 22.3C90.7412 22.3 89.5412 21.8267 88.5545 20.88C87.5679 19.92 87.0745 18.64 87.0745 17.04C87.0745 15.52 87.5545 14.28 88.5145 13.32C89.4745 12.3467 90.6079 11.86 91.9145 11.86C93.4345 11.86 94.6212 12.3133 95.4745 13.22C96.3412 14.1267 96.7745 15.3733 96.7745 16.96C96.7745 17.0667 96.7679 17.1867 96.7545 17.32C96.7545 17.4533 96.7545 17.56 96.7545 17.64L96.7345 17.78H89.6945C89.7212 18.42 89.9745 18.9533 90.4545 19.38C90.9345 19.8067 91.5079 20.02 92.1745 20.02C93.3079 20.02 94.0545 19.52 94.4145 18.52ZM113.551 11.2L111.071 11.96C110.977 11.4533 110.724 10.9933 110.311 10.58C109.897 10.1667 109.291 9.96 108.491 9.96C107.837 9.96 107.304 10.14 106.891 10.5C106.477 10.8467 106.271 11.2667 106.271 11.76C106.271 12.6267 106.784 13.16 107.811 13.36L109.791 13.74C111.044 13.98 112.017 14.48 112.711 15.24C113.404 16 113.751 16.8933 113.751 17.92C113.751 19.0933 113.284 20.12 112.351 21C111.431 21.8667 110.191 22.3 108.631 22.3C107.737 22.3 106.931 22.1667 106.211 21.9C105.491 21.6333 104.911 21.28 104.471 20.84C104.031 20.3867 103.684 19.9133 103.431 19.42C103.191 18.9133 103.044 18.3933 102.991 17.86L105.551 17.18C105.617 17.94 105.911 18.5733 106.431 19.08C106.964 19.5867 107.704 19.84 108.651 19.84C109.371 19.84 109.931 19.68 110.331 19.36C110.744 19.04 110.951 18.62 110.951 18.1C110.951 17.6867 110.797 17.3333 110.491 17.04C110.197 16.7333 109.777 16.5267 109.231 16.42L107.251 16.02C106.104 15.78 105.197 15.3067 104.531 14.6C103.864 13.8933 103.531 13.0133 103.531 11.96C103.531 10.7067 104.011 9.65333 104.971 8.8C105.944 7.94667 107.111 7.52 108.471 7.52C109.284 7.52 110.011 7.63333 110.651 7.86C111.291 8.08667 111.804 8.39333 112.191 8.78C112.577 9.15333 112.877 9.54 113.091 9.94C113.304 10.34 113.457 10.76 113.551 11.2ZM119.259 9.22V12.16H121.239V14.52H119.259V18.64C119.259 19.0533 119.352 19.3467 119.539 19.52C119.725 19.6933 120.019 19.78 120.419 19.78C120.779 19.78 121.052 19.7533 121.239 19.7V21.9C120.852 22.06 120.352 22.14 119.739 22.14C118.779 22.14 118.019 21.8733 117.459 21.34C116.899 20.7933 116.619 20.0467 116.619 19.1V14.52H114.839V12.16H115.339C115.832 12.16 116.205 12.02 116.459 11.74C116.725 11.4467 116.859 11.0667 116.859 10.6V9.22H119.259ZM126.04 19.14C126.534 19.6333 127.127 19.88 127.82 19.88C128.514 19.88 129.1 19.6333 129.58 19.14C130.074 18.6467 130.32 17.96 130.32 17.08C130.32 16.2 130.074 15.5133 129.58 15.02C129.1 14.5267 128.514 14.28 127.82 14.28C127.127 14.28 126.534 14.5267 126.04 15.02C125.56 15.5133 125.32 16.2 125.32 17.08C125.32 17.96 125.56 18.6467 126.04 19.14ZM124.12 13.34C125.107 12.3533 126.34 11.86 127.82 11.86C129.3 11.86 130.527 12.3533 131.5 13.34C132.487 14.3267 132.98 15.5733 132.98 17.08C132.98 18.5867 132.487 19.8333 131.5 20.82C130.527 21.8067 129.3 22.3 127.82 22.3C126.34 22.3 125.107 21.8067 124.12 20.82C123.147 19.8333 122.66 18.5867 122.66 17.08C122.66 15.5733 123.147 14.3267 124.12 13.34ZM141.08 12.12V14.8C140.813 14.7467 140.547 14.72 140.28 14.72C139.52 14.72 138.907 14.94 138.44 15.38C137.973 15.8067 137.74 16.5133 137.74 17.5V22H135.08V12.16H137.66V13.62C138.14 12.5933 139.073 12.08 140.46 12.08C140.607 12.08 140.813 12.0933 141.08 12.12ZM144.794 15.96H149.194C149.167 15.4133 148.967 14.9533 148.594 14.58C148.234 14.2067 147.7 14.02 146.994 14.02C146.354 14.02 145.834 14.22 145.434 14.62C145.034 15.02 144.82 15.4667 144.794 15.96ZM149.454 18.52L151.674 19.18C151.407 20.0867 150.88 20.8333 150.094 21.42C149.32 22.0067 148.354 22.3 147.194 22.3C145.78 22.3 144.58 21.8267 143.594 20.88C142.607 19.92 142.114 18.64 142.114 17.04C142.114 15.52 142.594 14.28 143.554 13.32C144.514 12.3467 145.647 11.86 146.954 11.86C148.474 11.86 149.66 12.3133 150.514 13.22C151.38 14.1267 151.814 15.3733 151.814 16.96C151.814 17.0667 151.807 17.1867 151.794 17.32C151.794 17.4533 151.794 17.56 151.794 17.64L151.774 17.78H144.734C144.76 18.42 145.014 18.9533 145.494 19.38C145.974 19.8067 146.547 20.02 147.214 20.02C148.347 20.02 149.094 19.52 149.454 18.52Z" fill="white"/>
<path d="M21.7158 17.0175C21.6795 12.9748 25.0216 11.008 25.1744 10.9165C23.2817 8.15316 20.3481 7.77561 19.3171 7.74551C16.8532 7.48586 14.4631 9.22186 13.208 9.22186C11.9278 9.22186 9.99493 7.77059 7.91178 7.81324C5.23112 7.85463 2.72343 9.40875 1.34792 11.8221C-1.49048 16.7428 0.626392 23.9741 3.34599 27.9516C4.70626 29.9008 6.29597 32.0745 8.37652 31.998C10.4121 31.9152 11.1724 30.6998 13.6289 30.6998C16.0627 30.6998 16.7768 31.998 18.8986 31.9491C21.0834 31.9152 22.4587 29.9924 23.7715 28.0268C25.3436 25.7954 25.9748 23.5953 26 23.4824C25.9498 23.4648 21.7584 21.8618 21.7158 17.0175V17.0175ZM17.7074 5.12897C18.8021 3.75798 19.5513 1.89279 19.3433 0C17.7586 0.0702426 15.777 1.09754 14.6358 2.43842C13.6261 3.62001 12.7242 5.5567 12.9572 7.37799C14.7374 7.51095 16.565 6.47863 17.7074 5.12897V5.12897Z" fill="white"/>
</svg>
