<svg width="20" height="20" viewBox="0 0 20 20" fill="none" xmlns="http://www.w3.org/2000/svg">
<path d="M10 20C15.5228 20 20 15.5228 20 10C20 4.47715 15.5228 0 10 0C4.47715 0 0 4.47715 0 10C0 15.5228 4.47715 20 10 20Z" fill="#4176FA"/>
<path d="M13.585 8.26075C10.6967 8.26075 10.693 11.1382 10.693 11.153C10.693 11.153 10.4951 14.034 13.585 14.034C13.585 14.034 16.162 14.1806 16.162 12.029H14.8387C14.8387 12.029 14.8826 12.839 13.6291 12.839C13.6291 12.839 12.3058 12.9271 12.3058 11.5304H16.206C16.206 11.5304 16.6349 8.26075 13.585 8.26075ZM12.2911 10.5223C12.2911 10.5223 12.4524 9.364 13.6144 9.364C14.7801 9.364 14.7617 10.5223 14.7617 10.5223H12.2911ZM8.98505 9.78202C8.98505 9.78202 10.1323 9.6977 10.1323 8.34881C10.1323 7.00367 9.19397 6.34375 8.00266 6.34375H4.08398V13.8763H8.00231C8.00231 13.8763 10.396 13.9497 10.396 11.6514C10.3962 11.6514 10.4988 9.78202 8.98505 9.78202ZM5.81061 7.68159H8.00248C8.00248 7.68159 8.53405 7.68159 8.53405 8.46593C8.53405 9.25027 8.22246 9.364 7.86683 9.364H5.81061V7.68159ZM7.89268 12.5384H5.81061V10.5223H8.00248C8.00248 10.5223 8.79806 10.515 8.79431 11.5596C8.79431 12.4395 8.20427 12.5311 7.89268 12.5384ZM11.9648 6.78726V7.71474H15.0733V6.78726H11.9648Z" fill="#F1F2F2"/>
</svg>
