<svg width="24" height="24" viewBox="0 0 24 24" fill="none" xmlns="http://www.w3.org/2000/svg">
<g clip-path="url(#clip0_72_267)">
<path d="M18.8629 9.65715L22.6567 7.8305C23.1228 7.60605 23.6827 7.80202 23.9071 8.26814C24.1315 8.73427 23.9356 9.29411 23.4695 9.51851L19.6756 11.3452C19.2199 11.5676 18.6504 11.3784 18.4252 10.9075C18.2008 10.4414 18.3968 9.88154 18.8629 9.65715ZM14.1105 9.89892C14.4763 10.2648 15.0694 10.2648 15.4353 9.89892L21.571 3.76326C21.9368 3.39746 21.9368 2.80431 21.571 2.43851C21.2051 2.07267 20.612 2.07267 20.2462 2.43851L14.1105 8.57418C13.7447 8.93998 13.7447 9.53312 14.1105 9.89892ZM23.0882 21.8418C23.0883 21.8416 23.0886 21.8413 23.089 21.8409C23.0888 21.8412 23.0885 21.8415 23.0882 21.8418ZM23.0882 21.8418L23.088 21.8419C23.0881 21.8419 23.0881 21.8419 23.0882 21.8418ZM22.9097 16.8949C20.4893 14.5498 18.0227 13.3508 15.4959 15.7281C15.4941 15.7299 15.4923 15.7316 15.4905 15.7334L14.224 16.9904C13.4326 16.5442 11.8457 15.4894 10.1829 13.8265C8.51979 12.1634 7.46469 10.5762 7.01899 9.78553L8.27605 8.519C8.27783 8.51722 8.27961 8.5154 8.28134 8.51362C10.6582 5.98488 9.46019 3.52214 7.11449 1.09986C6.4702 0.431777 5.60455 0.0454176 4.67699 0.0119291C3.7492 -0.021419 2.85821 0.301523 2.16736 0.9216C-2.37752 5.85744 0.91878 13.5221 5.68104 18.3285C5.68399 18.3315 5.68703 18.3344 5.69003 18.3374C6.35268 18.9991 7.10522 19.6541 7.92683 20.284C8.33736 20.5989 8.92535 20.5212 9.24019 20.1106C9.55499 19.7001 9.47738 19.1121 9.0668 18.7973C8.30631 18.2141 7.61288 17.6107 7.00578 17.0036C7.00292 17.0007 7.00007 16.9979 6.99721 16.9951C3.81772 13.812 1.90957 9.90351 1.89281 6.53817C1.88405 4.79231 2.40928 3.33507 3.41178 2.32217L3.41895 2.31571C4.09986 1.70458 5.13075 1.74172 5.76586 2.40039C8.19113 4.91545 8.0155 6.10282 6.94386 7.20176L5.20742 8.95122C4.93511 9.22559 4.85928 9.63907 5.01656 9.99222C6.45174 13.1785 10.904 17.5959 14.0173 18.9929C14.3705 19.1501 14.784 19.0744 15.0583 18.802L16.8075 17.0659C17.9067 15.994 19.094 15.8182 21.6093 18.2436C22.2679 18.8787 22.305 19.9096 21.6934 20.591L21.6872 20.5979C20.6743 21.6003 19.2181 22.1265 17.4714 22.1166C16.0911 22.1097 14.4926 21.7313 12.849 21.0224C12.3741 20.8175 11.8228 21.0365 11.6179 21.5116C11.413 21.9866 11.632 22.5378 12.107 22.7427C14.0069 23.5622 15.8085 23.9819 17.4621 23.9901C19.7158 24.0045 21.7162 23.2172 23.0881 21.842C23.7081 21.1513 24.0311 20.26 23.9976 19.3325C23.9641 18.4049 23.5778 17.5392 22.9097 16.8949ZM13.1019 5.58419C13.5577 5.80662 14.1272 5.6174 14.3523 5.14654L16.179 1.35274C16.4034 0.886612 16.2074 0.326768 15.7413 0.102372C15.275 -0.122119 14.7154 0.0738946 14.4909 0.540018L12.6643 4.33383C12.4399 4.79995 12.6358 5.35975 13.1019 5.58419Z" fill="#FE6C9D"/>
</g>
<defs>
<clipPath id="clip0_72_267">
<rect width="24" height="24" fill="white"/>
</clipPath>
</defs>
</svg>
