<svg width="70" height="70" viewBox="0 0 70 70" fill="none" xmlns="http://www.w3.org/2000/svg">
<path d="M45.0002 42.4996C43.6194 42.4996 42.5001 43.6189 42.5001 44.9996C42.5001 49.1418 39.1423 52.4996 35.0001 52.4996C30.858 52.4996 27.5001 49.1418 27.5001 44.9996C27.5001 43.6189 26.3808 42.4996 25.0001 42.4996C23.6193 42.4996 22.5 43.6189 22.5 44.9996C22.5 51.9032 28.0964 57.4996 35 57.4996C41.9035 57.4996 47.5 51.9032 47.5 44.9996C47.5003 43.6189 46.381 42.4996 45.0002 42.4996Z" fill="#FB6094"/>
<path d="M46.7671 10.7319L36.7671 0.732021C35.7907 -0.244007 34.2083 -0.244007 33.2321 0.732021L23.232 10.7321C22.2728 11.7253 22.3004 13.3079 23.2935 14.2671C24.2624 15.2028 25.7983 15.2028 26.7671 14.2671L32.4997 8.53453V42.4996C32.4997 43.8804 33.619 44.9997 34.9997 44.9997C36.3805 44.9997 37.4996 43.8803 37.4996 42.4996V8.53453L43.2322 14.2671C43.7009 14.736 44.3367 14.9995 44.9997 14.9996C46.3804 14.9993 47.4994 13.8798 47.4991 12.4991C47.499 11.8363 47.2357 11.2007 46.7671 10.7319Z" fill="#FB6094"/>
<path d="M67.5001 19.9996H45.0001C43.6193 19.9996 42.5 21.1189 42.5 22.4997C42.5 23.8804 43.6193 24.9997 45.0001 24.9997H52.7251C53.7986 31.281 58.7188 36.2012 65.0001 37.2747V52.7247C58.7188 53.7982 53.7986 58.7184 52.7251 64.9997H17.2751C16.2016 58.7184 11.2814 53.7982 5.00011 52.7247V37.2745C11.2814 36.201 16.2016 31.2808 17.2751 24.9996H25.0001C26.3809 24.9996 27.5002 23.8803 27.5002 22.4995C27.5002 21.1187 26.3809 19.9995 25.0001 19.9995H2.50005C1.11929 19.9996 0 21.1189 0 22.4995V67.4996C0 68.8804 1.11929 69.9997 2.50005 69.9997H67.5001C68.8809 69.9997 70.0002 68.8804 70.0002 67.4996V22.4995C70.0002 21.1189 68.8809 19.9996 67.5001 19.9996ZM4.99996 24.9996H12.145C11.2302 28.4979 8.49831 31.2298 4.99996 32.1446V24.9996ZM4.99996 64.9997V57.8546C8.49831 58.7694 11.2302 61.5013 12.145 64.9997H4.99996ZM65.0001 64.9997H57.855C58.7698 61.5013 61.5017 58.7694 65.0001 57.8546V64.9997ZM65.0001 32.1445C61.5017 31.2297 58.7698 28.4978 57.855 24.9994H65.0001V32.1445Z" fill="#FB6094"/>
</svg>
