<svg width="145" height="22" viewBox="0 0 145 22" fill="none" xmlns="http://www.w3.org/2000/svg">
<path fill-rule="evenodd" clip-rule="evenodd" d="M86.6494 20.7073H81.6108V19.4886C80.8946 20.0246 80.0935 20.4365 79.2409 20.7073C78.4359 20.9376 77.5841 21.0527 76.664 21.0527C74.3174 21.0527 72.3387 20.1326 70.7278 18.2924C69.0945 16.4512 68.2895 14.3574 68.2895 12.0108C68.2895 9.20368 69.2096 6.92634 71.0507 5.17697C72.7749 3.54361 74.8697 2.71525 77.3089 2.71525C79.8633 2.71525 82.0938 3.63535 83.9583 5.45309C85.7536 7.20157 86.6494 9.20368 86.6494 11.4585V20.7073V20.7073ZM81.6108 12.3094C81.6108 11.2283 81.2187 10.2614 80.3921 9.40965C79.5862 8.53541 78.6895 8.09829 77.6759 8.09829C76.3654 8.09829 75.3059 8.51293 74.5243 9.29453C73.7184 10.1004 73.3281 11.0898 73.3281 12.2635C73.3281 13.4822 73.7184 14.4491 74.4784 15.1624C75.2375 15.8756 76.181 16.2435 77.2855 16.2435C78.3891 16.2435 79.4028 15.8522 80.2752 15.0706C81.1737 14.2881 81.6108 13.368 81.6108 12.3094V12.3094ZM116.123 20.7073L114.835 20.7298C111.567 20.7298 109.013 19.8555 107.173 18.0846C105.469 16.4278 104.619 14.3115 104.619 11.7113C104.619 9.13443 105.492 6.9938 107.264 5.31458C109.012 3.63536 111.405 2.78361 114.397 2.78361L116.122 2.89873V7.63869L114.95 7.52356C113.223 7.52356 111.935 8.00745 111.083 8.97343C110.37 9.75503 110.025 10.6985 110.025 11.8264C110.025 13.2754 110.668 14.334 111.935 14.9555C112.901 15.416 114.305 15.6462 116.121 15.6462V20.7073H116.123V20.7073ZM24.9877 20.7073H19.9492V10.1004C19.9492 9.4798 19.6731 8.90417 19.1208 8.37531C18.5461 7.82307 17.948 7.57033 17.3265 7.57033C16.7508 7.57033 16.222 7.84646 15.7381 8.42119C15.2326 8.99682 14.979 9.68667 14.979 10.4683V20.7073H10.0097V10.3073C10.0097 9.54816 9.75693 8.88169 9.20378 8.30606C8.65154 7.73043 8.07681 7.45431 7.47869 7.45431C6.74207 7.45431 6.16733 7.73043 5.70683 8.28268C5.26971 8.83492 5.06195 9.43304 5.06195 10.0545V20.7073H0V9.6399C0 7.66117 0.874239 5.98195 2.60023 4.62472C4.11845 3.4051 5.77519 2.78361 7.52366 2.78361C9.08776 2.78361 10.6986 3.47436 12.4012 4.83069C13.087 4.18362 13.8919 3.67594 14.7712 3.33585C15.6688 2.96709 16.5197 2.78361 17.3256 2.78361C19.2575 2.78361 20.9835 3.42759 22.5017 4.67059C24.1585 6.05121 24.9868 7.7772 24.9868 9.84767V20.7073H24.9877V20.7073ZM45.3956 20.7073H40.3337V19.4886C39.6175 20.0247 38.8164 20.4367 37.9637 20.7073C37.1587 20.9376 36.3079 21.0527 35.3869 21.0527C33.0636 21.0527 31.084 20.1326 29.4507 18.2924C27.8173 16.4512 27.0123 14.3574 27.0123 12.0108C27.0123 9.20368 27.9324 6.92634 29.796 5.17697C31.4986 3.54361 33.5925 2.71525 36.0317 2.71525C38.6086 2.71525 40.8176 3.63535 42.6812 5.45309C44.4989 7.20157 45.3965 9.20368 45.3965 11.4585V20.7073H45.3956V20.7073ZM40.3337 12.3094C40.3337 11.2283 39.9424 10.2614 39.1374 9.40965C38.3325 8.53541 37.4124 8.09829 36.3996 8.09829C35.0882 8.09829 34.0296 8.51293 33.2471 9.29453C32.4412 10.1004 32.0509 11.0898 32.0509 12.2635C32.0509 13.4822 32.4421 14.4491 33.2013 15.1624C33.9838 15.8756 34.9039 16.2435 36.0084 16.2435C37.1128 16.2435 38.1256 15.8522 39.0223 15.0706C39.8966 14.2881 40.3337 13.368 40.3337 12.3094V12.3094ZM66.3791 11.5035C66.3791 14.1955 65.4824 16.4503 63.6647 18.2447C61.8694 20.0624 59.6604 20.9825 57.0836 20.9825C54.4843 20.9825 52.2753 20.0633 50.481 18.2447C48.6857 16.4045 47.7656 14.173 47.7656 11.5494C47.7656 9.31791 48.594 7.3158 50.2048 5.56822C51.9308 3.68123 54.0247 2.76112 56.4864 2.76112C58.0739 2.76112 59.638 3.15237 61.1571 3.95735V0.160889H66.38V11.5035H66.3791V11.5035ZM61.1562 11.8723C61.1562 10.7678 60.7649 9.82518 60.0058 8.99682C59.2701 8.19093 58.2574 7.79968 57.0153 7.79968C55.9108 7.79968 54.9673 8.2368 54.1857 9.08856C53.4041 9.94031 53.0119 10.9288 53.0119 12.0108C53.0119 13.0694 53.449 13.967 54.3008 14.7486C55.175 15.5311 56.1878 15.9233 57.4065 15.9233C58.511 15.9233 59.4311 15.5311 60.1219 14.7261C60.8117 13.9427 61.1562 12.9768 61.1562 11.8723V11.8723Z" fill="#6D6E70"/>
<path fill-rule="evenodd" clip-rule="evenodd" d="M102.111 15.7372C102.111 17.4632 101.398 18.8429 99.9938 19.924C98.6816 20.9142 97.095 21.3972 95.2314 21.3972C93.0917 21.3972 91.2964 20.8909 89.8699 19.879V15.0014C90.6057 15.5069 91.3189 15.9215 92.0555 16.2435C93.0215 16.6582 93.8967 16.8641 94.68 16.8641C95.3456 16.8641 95.9446 16.7265 96.451 16.4729C96.9574 16.2193 97.2101 15.8748 97.2101 15.461C97.2101 15.139 95.9455 14.4483 93.4137 13.3672C90.8593 12.2861 89.5947 10.6509 89.5947 8.48962C89.5947 6.78702 90.1919 5.33805 91.39 4.16341C92.7004 2.87453 94.4255 2.23145 96.567 2.23145C97.372 2.23145 98.1536 2.32319 98.937 2.50757C99.7186 2.69106 100.616 2.99056 101.628 3.38181V8.46624C101.077 7.93738 100.386 7.50026 99.6251 7.17737C98.8435 6.83289 98.1068 6.6719 97.4395 6.6719C96.7721 6.6719 96.1515 6.76454 95.5759 6.99389C95.0011 7.22414 94.7259 7.56952 94.7259 8.02913C94.7259 8.5355 95.9446 9.31799 98.4063 10.3757C100.869 11.4343 102.111 13.2296 102.111 15.7372V15.7372Z" fill="#A6BC7A"/>
<path fill-rule="evenodd" clip-rule="evenodd" d="M135.243 20.7074H129.952V9.98627C129.952 9.22626 129.675 8.55979 129.1 7.96167C128.525 7.36356 127.835 7.06405 127.054 7.06405C126.386 7.06405 125.741 7.36356 125.144 7.96167C124.545 8.55979 124.246 9.25055 124.246 10.0555V20.7083H118.979V0H124.246V3.29008C125.465 2.69196 126.801 2.39336 128.227 2.39336C130.183 2.39336 131.839 3.1066 133.197 4.55556C134.555 5.98205 135.243 7.66217 135.243 9.54825V20.7074ZM144.125 20.7299H138.925V3.15157H144.125V20.7299V20.7299Z" fill="#6D6E70"/>
</svg>
