<svg width="123" height="27" viewBox="0 0 123 27" fill="none" xmlns="http://www.w3.org/2000/svg">
<path fill-rule="evenodd" clip-rule="evenodd" d="M0.682617 26.3289H118.424V24.9751H0.682617V26.3289ZM0.682617 1.96811H118.424V0.61499H0.682617V1.96811ZM48.0499 4.67501V22.2682H66.3208V18.0729H53.3279V4.67501H48.0499ZM44.802 8.86964V4.67501H25.7197V22.2682H44.802V18.0729H30.9977V15.5013H44.802V11.306H30.9977V8.86964H44.802ZM88.5151 8.86964V4.67501H69.4328V22.2682H88.5151V18.0729H74.7107V15.5013H88.5151V11.306H74.7107V8.86964H88.5151ZM8.93794 22.2682H14.2159V8.86964H22.4712V4.67501H0.682617V8.86964H8.93794V22.2682ZM111.86 4.67501L105.296 11.1708L98.394 4.67501H92.0328L101.236 13.6072L92.1687 22.2682H98.5299L104.89 16.1112L111.387 22.2682H117.883L108.815 13.6072L118.017 4.67501H111.86ZM121.035 19.1259C119.966 19.1259 119.062 19.9484 119.062 21.0645C119.062 22.1909 119.966 23.0134 121.035 23.0134C122.095 23.0134 123 22.1909 123 21.0645C123 19.949 122.094 19.1259 121.035 19.1259ZM121.035 22.6888C120.146 22.6888 119.452 22.0003 119.452 21.0645C119.452 20.1442 120.146 19.4499 121.035 19.4499C121.914 19.4499 122.609 20.1442 122.609 21.0645C122.609 22.0003 121.914 22.6888 121.035 22.6888Z" fill="black"/>
<path fill-rule="evenodd" clip-rule="evenodd" d="M121.349 21.2037C121.678 21.1624 121.929 20.9873 121.929 20.5867C121.929 20.1442 121.667 19.9491 121.137 19.9491H120.283V22.191H120.623V21.2185H121.014L121.605 22.191H121.985L121.349 21.2037ZM120.623 20.9306V20.237H121.086C121.323 20.237 121.574 20.2879 121.574 20.5661C121.574 20.9106 121.318 20.9306 121.03 20.9306H120.623Z" fill="black"/>
</svg>
