<svg width="143" height="28" viewBox="0 0 143 28" fill="none" xmlns="http://www.w3.org/2000/svg">
<path d="M13.1598 28L12.9266 28C12.81 27.8826 -0.342958 24.3591 0.00685526 4.6745L0.00685529 4.39262L1.80256 1.80873L2.15237 1.76175C2.38557 1.71477 13.1598 1.15046e-06 13.1598 1.15046e-06C13.1598 1.15046e-06 23.9806 1.69128 24.2138 1.76175L24.4937 1.80873L26.2894 4.39262L26.2894 4.6745C26.5226 14.8691 23.0245 20.6712 20.0627 23.7248C16.8445 27.0604 13.4629 28 13.1598 28ZM1.82588 5.02685C1.59267 21.7987 11.5506 25.604 13.1831 26.1208C14.8622 25.604 24.7502 21.7752 24.5403 4.95638L23.4442 3.38255C22.2316 3.10067 17.4508 1.92618 13.2064 1.80873C8.96204 1.92618 4.25124 3.10067 2.96859 3.38255L1.82588 5.02685Z" fill="#01426A"/>
<path d="M8.68164 12.2383L18.4532 12.2383L18.4532 14.1645L8.68164 14.1645L8.68164 12.2383ZM8.68164 17.1007L18.4532 17.1007L18.4532 19.0269L8.68164 19.0269L8.68164 17.1007ZM8.68164 7.37585L18.4532 7.37586L18.4532 9.30203L8.68164 9.30203L8.68164 7.37585Z" fill="#01426A"/>
<path d="M8.63565 14.9395C7.7028 14.9395 6.88657 14.1173 6.88657 13.1307C6.88657 12.1911 7.63284 11.322 8.63565 11.322L13.2299 11.322L13.2299 9.98309L8.56568 9.98309C6.8166 9.98309 5.4873 11.3925 5.4873 13.1542C5.4873 14.916 6.88657 16.3254 8.56568 16.3254L13.2299 16.3254L13.2299 14.9395L8.63565 14.9395Z" fill="#42C31D"/>
<path d="M33.8916 19.0973L33.8916 7.44628L41.4475 7.44628L41.4475 9.06708L35.7339 9.06708L35.7339 12.4261L40.678 12.4261L40.678 14.047L35.7339 14.047L35.7339 17.406L41.4475 17.406L41.4475 19.0973L33.8916 19.0973ZM47.3244 19.4027C46.2283 19.4027 45.1089 19.1208 44.0128 18.5805L43.8496 18.5335L44.6658 16.7718L44.8291 16.8188C45.6919 17.2181 46.5781 17.453 47.3244 17.453C49.3067 17.453 49.4233 16.349 49.4233 16.0436C49.4233 15.5268 49.3766 14.8221 48.607 14.5168C48.4438 14.4698 48.024 14.2819 47.5576 14.1644C46.275 13.9295 43.8962 13.4127 43.8962 10.406C43.8962 9.41944 44.246 8.59728 44.8757 8.01003C45.5753 7.42279 46.5082 7.1409 47.8374 7.1409C48.5837 7.1409 49.3999 7.25836 50.0529 7.30534C50.3328 7.35232 51.1024 7.42279 51.1024 7.42279L50.9858 9.34897C50.9858 9.34897 50.2395 9.23151 49.8897 9.18453C49.3067 9.13755 48.5604 9.06708 47.8608 9.0201C46.0651 8.97312 45.8785 9.88923 45.8319 10.359C45.7852 10.7584 45.8319 11.698 47.9307 12.1678C48.6303 12.3322 49.26 12.5201 49.843 12.8725C51.2889 13.6946 51.5221 15.151 51.2423 16.7483C51.1257 17.5 50.6593 18.2047 49.843 18.6745C49.2367 19.1678 48.3039 19.4027 47.3244 19.4027ZM57.3757 19.3322C56.3962 19.3322 55.3467 19.2148 54.4606 18.3926C53.5277 17.453 53.1313 15.9262 53.1779 13.1778C53.1313 10.4765 53.5277 8.90265 54.4606 8.01004C55.2768 7.18789 56.3729 7.07044 57.3757 7.07044C57.8421 7.07044 58.3085 7.07044 58.8215 7.11742C59.4512 7.1644 60.6872 7.3993 60.7339 7.3993L60.8971 7.44628L60.8971 9.44293C60.8971 9.44293 60.7339 9.44292 60.5006 9.39594C60.1042 9.34896 59.1714 9.16104 58.7049 9.16104C58.1919 9.11406 57.7255 9.11407 57.3757 9.11407C56.6294 9.11407 56.163 9.23152 55.8598 9.46642C55.3934 9.93622 55.1602 11.1577 55.1602 13.2248L55.1602 13.2718C55.1135 15.2684 55.3234 16.5604 55.8598 17.0302C56.1396 17.2651 56.5594 17.3825 57.3757 17.3825C57.7721 17.3825 58.2385 17.3825 58.7049 17.3356C59.288 17.2886 60.6872 17.0537 60.6872 17.0537L60.9204 17.0067L60.9204 19.0033L60.7572 19.0503C60.7105 19.0503 59.4279 19.2852 58.8449 19.3322C58.3085 19.2852 57.8421 19.3322 57.3757 19.3322ZM69.829 19.0973L66.9139 15.2215L65.2348 15.2215L65.2348 19.0973L63.1359 19.0973L63.1359 7.44628L68.0333 7.44628C69.4791 7.44628 71.2982 8.73823 71.2982 11.2047C71.2982 13.953 69.2693 14.7752 69.1527 14.8456L72.231 19.1913L69.8523 19.1913L69.8523 19.0973L69.829 19.0973ZM67.87 13.1778C68.4997 13.1778 69.2693 12.4731 69.2693 11.2986C69.2693 10.1946 68.6396 9.53688 67.8234 9.53688L65.2581 9.53688L65.2581 13.1778L67.87 13.1778ZM78.0379 19.3322C75.356 19.3322 73.5603 17.8054 73.5603 15.5738L73.5603 10.7114C73.5603 8.55031 75.3093 7.18789 78.0379 7.18789C80.7198 7.18789 82.5155 8.71474 82.5155 10.9463L82.5155 15.6443C82.5155 17.8054 80.6498 19.3322 78.0379 19.3322ZM78.0379 9.0201C76.8252 9.0201 75.5426 9.4899 75.5426 10.8993L75.5426 15.3624C75.5426 16.5839 76.592 17.4765 78.0379 17.4765C79.4838 17.4765 80.5332 16.6074 80.5332 15.3624L80.5332 11.1342C80.4866 9.88923 79.4371 9.0201 78.0379 9.0201ZM93.5229 19.0503L91.3074 10.1946L89.092 19.0503L86.7132 19.0503L83.7515 7.09393L85.9436 7.09393L88.0425 15.5268L90.1414 7.09393L92.5201 7.09393L94.619 15.5268L96.7178 7.09393L98.9333 7.09393L95.9716 19.0503L93.5229 19.0503Z" fill="#01426A"/>
<path d="M100.496 19.3322C101.23 19.3322 101.826 18.7327 101.826 17.9932C101.826 17.2538 101.23 16.6543 100.496 16.6543C99.7621 16.6543 99.167 17.2538 99.167 17.9932C99.167 18.7327 99.7621 19.3322 100.496 19.3322Z" fill="#42C31D"/>
<path d="M107.959 19.3322C106.98 19.3322 105.93 19.2147 105.044 18.3926C104.111 17.453 103.715 15.9261 103.761 13.1778C103.715 10.4765 104.111 8.90265 105.044 8.01003C105.86 7.18788 106.956 7.07043 107.959 7.07043C108.426 7.07043 108.939 7.07044 109.475 7.11742C110.105 7.1644 111.271 7.39929 111.341 7.39929L111.504 7.44628L111.504 9.44292L111.341 9.44292C110.944 9.39594 109.708 9.16104 109.312 9.16104C108.799 9.11406 108.332 9.11406 107.983 9.11406C107.236 9.11406 106.77 9.23151 106.467 9.46641C106 9.93621 105.767 11.1577 105.767 13.2248L105.767 13.2718C105.72 15.2684 105.93 16.5604 106.467 17.0302C106.747 17.2651 107.166 17.3825 107.983 17.3825C108.379 17.3825 108.845 17.3825 109.312 17.3355C109.895 17.2886 111.294 17.0537 111.294 17.0537L111.527 17.0067L111.527 19.0033L111.364 19.0503C111.317 19.0503 110.035 19.2852 109.452 19.3322L107.959 19.3322ZM118.08 19.3322C115.515 19.3322 113.719 17.8053 113.719 15.5738L113.719 10.6409C113.719 8.47983 115.469 7.11742 118.08 7.11742C120.646 7.11742 122.441 8.64427 122.441 10.8758L122.441 15.5738C122.441 17.8053 120.622 19.3322 118.08 19.3322ZM118.08 9.0201C116.914 9.0201 115.632 9.4899 115.632 10.8993L115.632 15.3624C115.632 16.5839 116.611 17.4765 118.08 17.4765C119.48 17.4765 120.529 16.6073 120.529 15.3624L120.529 11.1342C120.459 9.88923 119.48 9.0201 118.08 9.0201ZM133.845 19.3322L133.542 12.1208L131.327 17.7584L129.135 17.7584L126.849 12.1208L126.616 19.3322L124.54 19.3322L124.937 7.1409L126.966 7.1409L130.231 15.2919L133.495 7.1409L135.478 7.1409L135.944 19.3322L133.845 19.3322Z" fill="#42C31D"/>
<path d="M140.072 17.6411L139.488 17.6411L139.488 19.3323L139.139 19.3323L139.139 17.6411L138.556 17.6411L138.556 17.3592L140.118 17.3592L140.118 17.6411L140.072 17.6411ZM142.683 17.3357L142.683 19.3323L142.334 19.3323L142.334 18.0404L142.334 17.876L141.751 19.0504C141.751 19.0974 141.704 19.0974 141.634 19.0974L141.587 19.0974C141.541 19.0974 141.471 19.0974 141.471 19.0504L140.841 17.876L140.841 19.3323L140.491 19.3323L140.491 17.3357L140.864 17.3357L140.864 17.3827L141.447 18.4867C141.447 18.5337 141.494 18.5337 141.494 18.6041C141.494 18.6511 141.494 18.6511 141.541 18.7216C141.541 18.6746 141.541 18.6746 141.587 18.6041C141.587 18.5572 141.587 18.5572 141.634 18.4867L142.217 17.3827L142.217 17.3357L142.31 17.3357L142.683 17.3357Z" fill="#01426A"/>
</svg>
