<svg width="138" height="33" viewBox="0 0 138 33" fill="none" xmlns="http://www.w3.org/2000/svg">
<path d="M53.3374 11.7095C52.1671 11.7095 51.2131 11.89 50.5049 12.2443C50.1153 12.4402 49.7642 12.7044 49.4683 13.0244V6.27482H46.7318V26.183H49.3918V25.0069C49.6706 25.3197 50.0038 25.5795 50.3754 25.7738C51.1139 26.166 52.1118 26.3642 53.3363 26.3642C55.3668 26.3642 56.8339 25.9233 57.6982 25.0567C58.5625 24.1903 59.0002 22.7096 59.0002 20.6547V17.4337C59.0002 15.3674 58.5625 13.8808 57.6982 13.0152C56.835 12.1485 55.3676 11.7095 53.3374 11.7095ZM56.1739 17.8849V20.2024C56.1739 22.2025 55.8707 22.9498 55.6189 23.2249C55.2638 23.6106 54.4475 23.8154 53.261 23.8154C51.9118 23.8154 50.9313 23.5284 50.3467 22.9601C49.764 22.3959 49.4683 21.4508 49.4683 20.1516V17.9336C49.4683 16.6271 49.7642 15.6779 50.3467 15.1118C50.9313 14.5438 51.9118 14.2565 53.2607 14.2565C54.4483 14.2565 55.2636 14.4613 55.6186 14.847C55.8707 15.1229 56.1739 15.8735 56.1739 17.8846V17.8849ZM72.2982 12.5416C71.8857 12.237 71.2878 12.0244 70.4715 11.8951C69.7094 11.7718 68.5841 11.7085 67.133 11.7085C65.1985 11.7085 63.8591 11.9714 63.0365 12.511C62.1774 13.0742 61.7407 14.0112 61.7407 15.2944V15.9703H64.4699L64.4792 15.6119C64.4927 15.0171 64.6486 14.6333 64.9548 14.4399C65.1955 14.286 65.7915 14.1037 67.2618 14.1037C69.4137 14.1037 70.0758 14.3644 70.2799 14.5181C70.5113 14.6912 70.7818 15.1545 70.7818 16.3766V17.8389C70.4991 17.636 70.1674 17.4783 69.792 17.3601C69.0993 17.1453 68.1401 17.0415 66.8606 17.0415C65.6362 17.0415 64.7223 17.1007 64.0618 17.2219C63.368 17.349 62.8273 17.5741 62.4508 17.8878C62.011 18.2573 61.692 18.7553 61.5039 19.3604C61.3234 19.9406 61.2356 20.7096 61.2356 21.7085C61.2356 23.464 61.6448 24.6953 62.4519 25.3705C63.2509 26.0386 64.7261 26.3664 66.9628 26.3664C68.1973 26.3664 69.1871 26.2312 69.9002 25.9631C70.3002 25.8143 70.646 25.6117 70.9357 25.3602L70.9797 26.1871H73.5305V16.3298C73.5305 15.1689 73.4427 14.3604 73.2622 13.8613C73.0795 13.3379 72.7562 12.8981 72.2979 12.5416H72.2982ZM70.7837 20.936V22.3656C70.7837 22.6306 70.7024 23.0183 69.991 23.3393C69.3728 23.6193 68.4442 23.764 67.2382 23.764C65.5893 23.764 64.915 23.5133 64.6393 23.3044C64.267 23.0234 64.0783 22.4023 64.0783 21.4643C64.0783 20.655 64.2537 20.114 64.5976 19.8586C64.8556 19.6661 65.4863 19.4359 67.0168 19.4359C68.3963 19.4359 69.4034 19.5765 70.0094 19.8524C70.5379 20.0937 70.7837 20.4388 70.7837 20.936ZM87.067 18.0802C86.75 17.9314 86.2599 17.8237 85.5683 17.7453C84.9143 17.672 84.0083 17.6119 82.8686 17.5689C82.5949 17.5568 82.3211 17.5483 82.0472 17.5435C80.4034 17.5029 79.7678 17.3409 79.5331 17.2189C79.4106 17.1505 79.3331 17.0566 79.283 16.9243C79.2494 16.8256 79.1892 16.567 79.1892 15.9276C79.1892 15.4183 79.2689 14.7596 79.6453 14.507C79.8421 14.3755 80.4514 14.1556 82.3095 14.1556C84.1663 14.1556 84.9439 14.3236 85.2653 14.4672C85.6539 14.6373 85.8285 14.9154 85.8285 15.3733V15.8694H88.5783V15.5029C88.5783 14.1118 88.162 13.115 87.3438 12.5375C86.5559 11.9803 85.1387 11.7106 83.0174 11.7106C80.3064 11.7106 78.5799 11.9927 77.7433 12.5751C76.876 13.1783 76.4383 14.3054 76.4383 15.9276C76.4383 16.9081 76.5549 17.6485 76.7996 18.1892C77.0517 18.7523 77.4772 19.1984 78.0544 19.5173C78.3309 19.6761 78.9719 19.8695 81.481 19.9398C82.3125 19.9641 82.9727 19.9917 83.4622 20.0161C85.0805 20.0997 85.5724 20.3358 85.7225 20.4691C85.8938 20.622 86.0968 21.0058 86.0968 21.9671C86.0968 22.7543 85.9396 23.2768 85.6285 23.5211C85.4387 23.6699 84.7991 23.9193 82.6288 23.9193C80.782 23.9193 80.0188 23.6921 79.7066 23.5027C79.3036 23.2593 79.1076 22.7992 79.1076 22.0956V21.4224H76.3343V22.1494C76.3343 23.7278 76.7814 24.8441 77.6577 25.4684C78.5076 26.0732 80.1443 26.3683 82.6562 26.3683C83.844 26.3683 84.7896 26.3256 85.4639 26.242C86.1927 26.1535 86.7109 26.0029 87.0478 25.7848C87.7498 25.3561 88.2498 24.8441 88.5281 24.2685C88.8057 23.6972 88.9395 22.9052 88.9395 21.8422C88.9395 20.7981 88.8027 20.012 88.5189 19.4407C88.2324 18.844 87.7405 18.3877 87.067 18.0802ZM101.49 21.4713L101.462 21.8054C101.396 22.5579 101.167 23.0832 100.783 23.3623C100.505 23.5679 99.8743 23.8124 98.4693 23.8124H97.5264C95.9715 23.8124 95.3379 23.4865 95.0817 23.2136C94.8205 22.9355 94.5083 22.2647 94.5083 20.6493C94.5083 20.352 94.5123 20.1218 94.5164 19.9549C94.5164 19.9203 94.5186 19.8887 94.5186 19.8551L104.315 19.84V17.4285C104.315 15.3431 103.869 13.8499 102.989 12.9938C102.102 12.1261 100.622 11.7036 98.4682 11.7036H97.5277C95.3829 11.7036 93.9104 12.1261 93.026 12.9938C92.1392 13.8643 91.7086 15.3147 91.7086 17.4275V20.6463C91.7086 22.7502 92.1422 24.1973 93.0339 25.068C93.9228 25.9366 95.401 26.3583 97.554 26.3583H98.4969C100.397 26.3583 101.821 26.0029 102.726 25.3034C103.653 24.5874 104.18 23.4275 104.288 21.8573L104.317 21.464L101.49 21.4713ZM101.498 17.349H94.5348V17.1894C94.5348 16.0415 94.7286 15.234 95.1021 14.8562C95.3595 14.5965 95.9867 14.2841 97.5277 14.2841H98.4704C100.02 14.2841 100.66 14.5978 100.923 14.8594C101.298 15.2362 101.498 16.0407 101.498 17.1883V17.349ZM118.794 11.402H114.24L110.437 15.9224V5.78577H106.718V26.6731H110.437V21.0356L114.994 26.6726H119.755L112.916 18.3074L118.794 11.402ZM120.007 5.78604H123.727V9.7647H120.007V5.78604ZM120.007 11.402H123.727V26.6729H120.007V11.402ZM134.009 20.183V21.4386C134.009 22.678 133.774 22.9966 133.726 23.0486C133.685 23.0945 133.419 23.3255 132.388 23.3255C131.583 23.3255 131.156 23.1741 131.027 23.0312C130.957 22.955 130.728 22.6139 130.728 21.4386V14.8248H137.391V11.4012H130.728V8.34814H126.996V11.4001H125.33V14.8237H126.998V21.1535C126.998 23.2125 127.362 24.6374 128.118 25.5057C128.892 26.3978 130.205 26.8511 132.015 26.8511C134.281 26.8511 135.775 26.4397 136.583 25.5944C137.381 24.7613 137.77 23.3082 137.77 21.1524V20.183H134.009H134.009ZM17.2894 14.728C17.932 14.6171 18.3697 14.3249 18.6036 13.8553C18.8394 13.3858 18.9565 12.7718 18.9565 12.0111C18.9565 11.2719 18.8332 10.7179 18.5882 10.3503C18.4025 10.1169 18.1353 9.9581 17.7832 9.87263C17.4331 9.78796 16.871 9.74414 16.0996 9.74414H10.8369V14.7799H16.0495C16.6476 14.7777 17.0618 14.7615 17.2894 14.728Z" fill="#136AC9"/>
<path d="M37.5058 0H3.24769C1.46707 0 0.0244141 1.43902 0.0244141 3.21371V29.5639C0.0244141 31.3367 1.46707 32.7768 3.24661 32.7768H37.5058C39.2853 32.7768 40.7283 31.3367 40.7283 29.5639V3.21344C40.7288 1.43902 39.2861 0 37.5055 0H37.5058ZM21.8439 25.1476C20.9829 25.9042 19.4809 26.2799 17.3403 26.2799H7.02575V6.49802H16.972C19.2668 6.49802 20.8021 6.91242 21.5778 7.7412C22.3716 8.45314 22.7654 9.75556 22.7654 11.6444C22.7654 13.1375 22.4917 14.2363 21.9461 14.9398C21.5114 15.4551 20.842 15.8165 19.9378 16.0212V16.1251C20.9319 16.236 21.6737 16.5436 22.1594 17.0426C22.6459 17.5417 22.947 18.0935 23.0673 18.6964C23.1847 19.3012 23.2448 19.9907 23.2448 20.7667C23.2448 22.902 22.7765 24.3602 21.8439 25.1474V25.1476ZM31.9124 26.2799L23.256 16.1565L31.2278 6.49992H35.8786L27.8639 16.1789L36.6998 26.2818L31.9124 26.2796V26.2799Z" fill="#136AC9"/>
<path d="M16.7327 17.6832H10.8369V23.0346H16.5268C17.2206 23.0346 17.7645 22.9827 18.1605 22.8818C18.992 22.5804 19.4072 21.7708 19.4072 20.453C19.4072 19.3635 19.24 18.6242 18.9031 18.2371C18.5155 17.8685 17.793 17.6832 16.733 17.6832H16.7327Z" fill="#136AC9"/>
</svg>
