<svg width="130" height="39" viewBox="0 0 130 39" fill="none" xmlns="http://www.w3.org/2000/svg">
<path fill-rule="evenodd" clip-rule="evenodd" d="M24.2083 23.2518C24.2083 21.1317 23.9965 19.8605 23.1483 19.0117C22.3002 17.9517 21.0283 17.5279 18.2719 17.5279C16.7882 17.5279 15.7275 17.3161 15.3037 17.3161H7.67169C6.82353 17.1035 6.39911 16.6798 6.39911 15.8323C6.39911 14.7723 7.0354 14.3485 8.30729 14.136H13.6074C17.4231 14.136 17.8475 14.3485 17.8475 16.0442H23.5714C23.5714 12.6515 22.9351 11.3796 21.0269 10.744C19.5431 10.1077 18.0587 10.1077 12.5467 10.1077C8.9422 10.1077 7.24658 10.1077 5.55026 10.3203C1.94577 10.744 0.885742 12.4403 0.885742 16.0442C0.885742 19.0117 1.52203 20.4954 3.64208 21.1317C4.49024 21.5562 6.18655 21.5562 8.9422 21.5562H14.0305C16.3624 21.5562 16.5749 21.768 16.9987 21.768C18.0587 21.768 18.6943 22.4043 18.6943 23.2518C18.6943 24.9488 17.8468 25.1607 11.2748 25.1607C9.79105 25.1607 8.09473 25.1607 7.671 24.9488C6.82284 24.7356 6.61098 24.3125 6.61098 23.0399H0.887122V24.0993C0.887122 26.8556 1.73528 28.1282 3.85533 28.7645C5.33909 28.9764 7.24796 29.1875 11.4881 29.1875C15.5163 29.1875 17 29.1875 19.3326 28.7645C22.9364 28.5533 24.2083 26.8563 24.2083 23.2518ZM54.949 28.9764L44.7732 10.1077H37.1405L26.5403 28.9764H32.9004L34.8086 25.5837H46.8926L48.8008 28.9764H54.949ZM44.9851 21.768H36.9286L40.745 14.136L44.9851 21.768Z" fill="#0C0E0F"/>
<path fill-rule="evenodd" clip-rule="evenodd" d="M56.6455 19.6472C56.6455 9.25949 65.1257 0.779297 75.5141 0.779297C83.7817 0.779297 90.7775 6.29129 93.3226 13.7115C95.8664 6.29129 102.863 0.779297 111.131 0.779297C121.52 0.779297 130 9.25949 130 19.6472C130 30.0356 121.52 38.3046 111.131 38.3046C102.864 38.3046 95.8664 33.0031 93.3226 25.5829C90.7775 33.0031 83.7824 38.3046 75.5141 38.3046C65.1257 38.3046 56.6455 30.0356 56.6455 19.6472Z" fill="#305DA2"/>
<path fill-rule="evenodd" clip-rule="evenodd" d="M87.1747 23.2518C87.1747 21.1317 86.7503 19.8605 86.114 19.0117C85.0546 17.9517 83.9939 17.5279 81.239 17.5279C79.7552 17.5279 78.4826 17.3161 78.2694 17.3161H70.638C69.7899 17.1035 69.3655 16.6798 69.3655 15.8323C69.3655 14.7723 69.7899 14.3485 71.2743 14.136H76.3626C80.1782 14.136 80.8145 14.3485 80.8145 16.0442H86.3258C86.3258 12.6515 85.6909 11.3796 83.782 10.744C82.5095 10.1077 81.0257 10.1077 75.5144 10.1077C71.9099 10.1077 70.2143 10.1077 68.3061 10.3203C64.9135 10.744 63.6416 12.4403 63.6416 16.0442C63.6416 19.0117 64.4898 20.4954 66.3973 21.1317C67.458 21.5562 68.9424 21.5562 71.6987 21.5562H76.9989C79.3308 21.5562 79.5426 21.768 79.7552 21.768C81.0264 21.768 81.4508 22.4043 81.4508 23.2518C81.4508 24.9488 80.8145 25.1607 74.0307 25.1607C72.5469 25.1607 71.0625 25.1607 70.4262 24.9488C69.578 24.7356 69.3655 24.3125 69.3655 23.0399H63.8535C63.6416 23.4643 63.6416 23.8881 63.6416 24.0993C63.6416 26.8556 64.7016 28.1282 66.8217 28.7645C68.0943 28.9764 70.0011 29.1875 74.2418 29.1875C78.2694 29.1875 79.9664 29.1875 82.2983 28.7645C85.9021 28.5533 87.1747 26.8563 87.1747 23.2518ZM125.335 28.9764L115.16 10.1077H107.315L96.9268 28.9764H103.286L105.195 25.5837H117.278L119.187 28.9764H125.335Z" fill="white"/>
<path fill-rule="evenodd" clip-rule="evenodd" d="M115.16 21.7679H107.104L111.131 14.1351L115.16 21.7679Z" fill="#305DA2"/>
</svg>
