<svg width="150" height="34" viewBox="0 0 150 34" fill="none" xmlns="http://www.w3.org/2000/svg">
<path d="M42.9784 25.2822C40.1667 25.2822 38.9014 23.3056 38.9014 20.7138V11.5508C38.9014 10.6476 39.5532 9.92761 40.4223 9.92761C41.2658 9.92761 41.9432 10.6476 41.9432 11.5508V13.1347H44.7805C45.5218 13.1347 46.1864 13.7106 46.1864 14.5222C46.1864 15.2814 45.5345 15.8705 44.7805 15.8705H41.9432V20.6484C41.9432 21.761 42.4161 22.3632 43.4129 22.3632C43.9114 22.3632 44.4098 22.2192 44.8188 22.1144C45.9691 21.8396 46.6976 22.5726 46.6976 23.4365C46.6976 23.947 46.4547 24.4837 45.7518 24.811C44.9466 25.1644 43.8475 25.2822 42.9784 25.2822Z" fill="#424C50"/>
<path d="M56.1682 14.3127C56.1682 14.941 55.6953 15.7788 54.7368 15.7788C54.2128 15.7788 53.7143 15.5432 53.037 15.5693C52.2829 15.5955 51.8611 16.0144 51.8611 17.0747V23.6328C51.8611 24.5098 51.2093 25.2036 50.3402 25.2036C49.4967 25.2036 48.8193 24.5098 48.8193 23.6328V16.4856C48.8193 14.0771 50.1997 12.5193 52.8069 12.5193C53.5482 12.5193 54.3022 12.5848 54.7496 12.7026C55.6826 12.9644 56.1682 13.5404 56.1682 14.3127Z" fill="#424C50"/>
<path d="M64.769 17.8602C64.9224 17.8602 65.0118 17.7685 65.0118 17.5853C65.0757 16.1716 64.2194 15.216 62.7497 15.216C61.1393 15.216 60.3469 16.2632 60.3469 17.8602H64.769ZM67.9386 18.423C67.9386 19.3263 67.4913 19.9808 66.3794 19.9808H60.3597V20.2164C60.3597 21.6825 61.446 22.4679 62.9669 22.4679C63.7849 22.4679 64.6156 22.2584 65.3953 21.9574C66.5966 21.4992 67.389 22.3239 67.389 23.1878C67.389 23.6329 67.2357 24.1172 66.6222 24.4837C65.7787 24.9942 64.3345 25.2953 62.8902 25.2953C59.759 25.2953 57.663 23.2794 57.4329 20.3735C57.369 19.4702 57.3818 18.1874 57.4329 17.4675C57.7013 14.4568 59.8101 12.5325 62.7752 12.5325C65.8554 12.5325 67.9642 14.64 67.9642 17.9125V18.423H67.9386Z" fill="#424C50"/>
<path d="M77.5625 17.8602C77.7158 17.8602 77.8181 17.7685 77.8181 17.5853C77.882 16.1716 77.0257 15.216 75.5559 15.216C73.9456 15.216 73.1532 16.2632 73.1532 17.8602H77.5625ZM80.732 18.423C80.732 19.3263 80.2847 19.9808 79.1728 19.9808H73.1532V20.2164C73.1532 21.6825 74.2395 22.4679 75.7604 22.4679C76.5784 22.4679 77.4091 22.2584 78.1887 21.9574C79.3901 21.4992 80.1825 22.3239 80.1825 23.1878C80.1825 23.6329 80.0291 24.1172 79.4156 24.4837C78.5721 24.9942 77.1279 25.2953 75.6837 25.2953C72.5525 25.2953 70.4565 23.2794 70.2264 20.3735C70.1625 19.4702 70.1881 18.1874 70.2264 17.4675C70.4948 14.4568 72.6036 12.5325 75.5687 12.5325C78.6488 12.5325 80.7576 14.64 80.7576 17.9125V18.423H80.732Z" fill="#424C50"/>
<path d="M86.3815 13.4356C86.8799 12.9775 88.0302 12.5324 89.2316 12.5324C92.1072 12.5324 93.807 14.2996 93.807 17.6113V23.5673C93.807 24.4967 93.168 25.2167 92.2733 25.2167C91.4298 25.2167 90.778 24.4967 90.778 23.5673V17.7684C90.778 16.3547 89.9856 15.5693 88.7459 15.5693C87.7873 15.5693 86.8671 16.0143 86.3942 16.538V23.6066C86.3942 24.4836 85.7552 25.2036 84.8989 25.2036C84.0554 25.2036 83.3652 24.4836 83.3652 23.6066V10.0453C83.3652 9.14208 84.0171 8.4483 84.8861 8.4483C85.7297 8.4483 86.407 9.14208 86.407 10.0453V13.4356" fill="#424C50"/>
<path d="M104.287 17.7423C104.223 16.4202 103.315 15.4908 101.884 15.4908C100.453 15.4908 99.5707 16.4202 99.4557 17.7423C99.4173 18.3706 99.4173 19.4571 99.4557 20.0592C99.5707 21.3813 100.453 22.3107 101.884 22.3107C103.315 22.3107 104.197 21.3813 104.287 20.0592C104.338 19.4571 104.338 18.3706 104.287 17.7423ZM101.884 25.2821C98.9189 25.2821 96.6695 23.3317 96.4522 20.5697C96.3883 19.6403 96.3883 18.1742 96.4522 17.2579C96.6823 14.4698 98.9189 12.5193 101.884 12.5193C104.875 12.5193 107.073 14.4698 107.29 17.2579C107.354 18.1873 107.354 19.6272 107.29 20.5566C107.073 23.3317 104.875 25.2821 101.884 25.2821Z" fill="#424C50"/>
<path d="M109.948 14.2472C109.948 13.3178 110.498 12.5978 111.444 12.5978C112.3 12.5978 112.977 13.3178 112.977 14.2472V20.1639C112.977 21.5514 113.859 22.3238 115.15 22.3238C116.147 22.3238 116.901 22.0227 117.374 21.7216V14.2079C117.374 13.3309 118.013 12.6109 118.895 12.6109C119.738 12.6109 120.416 13.3309 120.416 14.2079V22.8866C120.416 23.4233 120.275 23.7244 119.879 23.9731C119.176 24.4836 117.527 25.2952 115.099 25.2952C111.84 25.2952 109.961 23.4888 109.961 20.2163V14.2472" fill="#424C50"/>
<path d="M132.366 21.2504C132.366 23.8422 130.257 25.2821 127.637 25.2821C125.503 25.2821 124.148 24.6538 123.317 23.9339C122.78 23.4757 122.614 22.5856 123.049 22.0096C123.496 21.3813 124.276 21.2504 125.017 21.7347C125.72 22.1929 126.653 22.494 127.714 22.494C128.889 22.494 129.439 22.0489 129.439 21.4206C129.439 20.9101 129.081 20.5566 128.123 20.3341C127.305 20.1508 127.33 20.177 126.448 19.9414C124.595 19.4571 123.138 18.3837 123.138 16.394C123.138 13.8938 125.106 12.5193 127.765 12.5193C129.196 12.5193 130.666 12.8859 131.458 13.5666C132.11 14.1294 132.072 15.0719 131.599 15.6348C131.152 16.1453 130.372 16.2107 129.631 15.818C129.043 15.517 128.25 15.3075 127.663 15.3075C126.525 15.3075 126.052 15.7526 126.052 16.3024C126.052 16.7867 126.397 17.114 127.407 17.3496L129.017 17.7161C131.267 18.279 132.366 19.4178 132.366 21.2504Z" fill="#424C50"/>
<path d="M141.772 17.8602C141.926 17.8602 142.028 17.7685 142.028 17.5853C142.092 16.1716 141.236 15.216 139.766 15.216C138.156 15.216 137.363 16.2632 137.363 17.8602H141.772ZM144.942 18.423C144.942 19.3263 144.495 19.9808 143.383 19.9808H137.363V20.2164C137.363 21.6825 138.449 22.4679 139.97 22.4679C140.788 22.4679 141.619 22.2584 142.399 21.9574C143.6 21.4992 144.392 22.3239 144.392 23.1878C144.392 23.6329 144.239 24.1172 143.626 24.4837C142.782 24.9942 141.338 25.2953 139.894 25.2953C136.762 25.2953 134.666 23.2794 134.436 20.3735C134.372 19.4702 134.398 18.1874 134.436 17.4675C134.705 14.4568 136.814 12.5325 139.779 12.5325C142.859 12.5325 144.968 14.64 144.968 17.9125V18.423H144.942Z" fill="#424C50"/>
<path d="M148.469 12.9775L148.7 13.9854L148.93 12.9775C148.968 12.7811 149.147 12.6502 149.313 12.6502C149.517 12.6502 149.671 12.768 149.722 13.0298L149.926 14.3519C149.952 14.509 149.901 14.6661 149.747 14.6923C149.569 14.7315 149.441 14.6268 149.428 14.4566L149.287 13.344L149.032 14.3912C148.981 14.5744 148.878 14.6923 148.7 14.6923C148.533 14.6923 148.431 14.5875 148.367 14.3912L148.112 13.344L147.971 14.4697C147.945 14.6268 147.83 14.7315 147.652 14.7053C147.498 14.6792 147.447 14.5221 147.473 14.365L147.677 13.056C147.715 12.7942 147.882 12.6764 148.086 12.6764C148.265 12.6502 148.431 12.768 148.469 12.9775ZM146.885 14.4305C146.885 14.5875 146.77 14.6923 146.629 14.6923C146.476 14.6923 146.361 14.5744 146.361 14.4305V13.2H145.965C145.837 13.2 145.722 13.0822 145.722 12.9513C145.722 12.7942 145.837 12.6895 145.965 12.6895H147.268C147.396 12.6895 147.511 12.7942 147.511 12.9513C147.511 13.0822 147.396 13.2 147.268 13.2H146.885V14.4305Z" fill="#424C50"/>
<path d="M26.2363 7.02158C25.1627 6.40635 23.4629 7.40119 22.4276 9.24689L20.5489 12.5848C19.8587 13.9724 19.961 15.6217 20.8301 16.9046L20.8812 16.9831C21.7503 18.2659 22.9133 19.444 23.2967 19.8629C23.5268 20.1116 23.6929 20.4127 23.7952 20.7661C24.1147 21.9311 23.4501 23.1354 22.3126 23.4496C21.1751 23.7768 19.9993 23.0962 19.6926 21.9311C19.6159 21.6432 19.5903 21.3421 19.6287 21.0672C19.6926 20.5829 19.5392 19.8106 18.8746 19.0382C18.21 18.2659 16.8297 19.7189 16.3824 21.2112L16.3568 21.2766C15.9095 22.7689 15.6283 24.0648 15.7178 24.1826C15.7689 24.2612 15.82 24.3397 15.8584 24.4182C16.4846 25.6225 16.0373 27.1017 14.8615 27.7431C13.6857 28.3845 12.2415 27.9264 11.6152 26.7221C10.989 25.5178 11.4363 24.0386 12.6121 23.3972L12.7655 23.3187C12.8549 23.2794 13.1105 22.6511 13.3278 21.9181C13.5451 21.185 13.724 20.5829 13.724 20.5829C13.7496 20.5043 13.7624 20.4258 13.7879 20.3472L14.9765 16.0144L13.7112 18.6717C13.5579 18.1612 13.315 18.1481 12.7655 18.5408C12.4332 18.7764 11.8964 19.2477 11.628 19.444C11.1296 19.8106 10.7078 20.5174 10.4905 20.9494C10.3627 21.1981 10.1838 21.4337 9.95373 21.6301C9.04631 22.3893 7.71712 22.2453 6.97585 21.3159C6.23457 20.3865 6.37516 19.0252 7.28258 18.2659C7.55097 18.0434 7.84493 17.8994 8.16444 17.834C8.70123 17.7161 10.5033 16.5773 11.6024 15.7788C11.7941 15.6348 11.9603 15.5039 12.0881 15.373L15.0021 13.1084L12.4587 14.5091C12.4587 14.5091 12.2031 14.4829 11.8836 14.5222C10.9506 14.6269 9.99207 14.7578 9.81315 14.9934C9.7109 15.1374 9.58309 15.2552 9.42973 15.373C8.58621 16.0014 7.39761 15.805 6.78414 14.928C6.17067 14.064 6.36238 12.8466 7.21868 12.2183C7.56375 11.9565 7.97273 11.8387 8.36893 11.8518C9.04631 11.8649 10.8356 12.2445 12.3309 11.9696L12.7143 11.9042C14.2097 11.6293 15.999 10.2941 16.7147 8.91964C16.7147 8.91964 17.4176 7.66299 18.2739 6.10528C19.143 4.56065 19.0663 2.85895 18.1333 2.30917L16.4335 1.32741C15.5772 0.82999 14.1713 0.82999 13.3023 1.32741L1.62076 8.14732C0.764458 8.64475 0.0615234 9.87521 0.0615234 10.8831V24.1172C0.0615234 25.1251 0.764458 26.3556 1.62076 26.853L13.3534 33.6205C14.2097 34.118 15.6156 34.118 16.4846 33.6205L28.1789 26.853C29.0352 26.3556 29.7382 25.1251 29.7382 24.1041V10.8831C29.7382 9.87521 29.0352 8.63166 28.1789 8.13423C28.1661 8.14732 27.3098 7.63681 26.2363 7.02158Z" fill="#67B569"/>
</svg>
