<svg width="20" height="20" viewBox="0 0 20 20" fill="none" xmlns="http://www.w3.org/2000/svg">
<path d="M10 20C15.5228 20 20 15.5228 20 10C20 4.47715 15.5228 0 10 0C4.47715 0 0 4.47715 0 10C0 15.5228 4.47715 20 10 20Z" fill="#F26798"/>
<path d="M9.99932 3.64917C6.49313 3.64917 3.64062 6.49829 3.64062 10C3.64062 13.5017 6.49313 16.3507 9.99932 16.3507C13.5057 16.3507 16.3584 13.5019 16.3584 10C16.3584 6.49829 13.5057 3.64917 9.99932 3.64917ZM14.1836 6.6466C14.9089 7.54557 15.3498 8.6809 15.3701 9.91802C15.1287 9.86846 14.1066 9.67791 12.8852 9.67791C12.491 9.67791 12.0762 9.69769 11.6603 9.74903C11.6252 9.66364 11.5901 9.57861 11.5532 9.49269C11.4454 9.23903 11.3291 8.98733 11.2088 8.73937C13.0887 7.96483 13.9955 6.88993 14.1836 6.6466ZM9.99932 4.64332C11.3543 4.64332 12.5928 5.14673 13.5388 5.97581C13.3891 6.1801 12.5769 7.19529 10.7642 7.88016C9.92516 6.34641 9.00677 5.07632 8.78822 4.78147C9.17772 4.69127 9.58308 4.64332 9.99932 4.64332ZM7.69175 5.16384C7.87696 5.41893 8.79678 6.70258 9.65742 8.22402C7.34771 8.83117 5.29666 8.87075 4.80163 8.87075H4.74904C5.10467 7.23183 6.21202 5.86993 7.69175 5.16384ZM4.62711 10.0084C4.62711 9.96419 4.62783 9.91998 4.62925 9.87595C4.66134 9.87631 4.70876 9.87631 4.77026 9.87631C5.43695 9.87631 7.75111 9.82123 10.1359 9.11354C10.2806 9.39661 10.4184 9.68397 10.5466 9.97114C10.4863 9.98843 10.427 10.0057 10.368 10.025C7.68284 10.8922 6.20703 13.188 5.97992 13.5632C5.13854 12.6153 4.62711 11.3707 4.62711 10.0084ZM9.99932 15.3731C8.76719 15.3731 7.63007 14.9558 6.72273 14.2561C6.87621 13.9552 7.99016 11.9496 10.9327 10.9255C10.9345 10.9248 10.9364 10.9241 10.9386 10.9236C11.6764 12.8445 11.9889 14.4567 12.0746 14.9563C11.4361 15.2248 10.7348 15.3731 9.99932 15.3731ZM13.0422 14.4275C12.9702 14.0141 12.6807 12.5031 12.0126 10.6603C12.3873 10.602 12.7518 10.579 13.0937 10.579C14.2166 10.579 15.0949 10.8248 15.299 10.8872C15.0564 12.3505 14.2185 13.6169 13.0422 14.4275Z" fill="#F1F2F2"/>
</svg>
