<svg width="153" height="26" viewBox="0 0 153 26" fill="none" xmlns="http://www.w3.org/2000/svg">
<path d="M4.00265 0.40635C3.40946 0.0271833 2.69355 -0.0879209 2.01855 0.0678083L13.8276 11.7949L17.6526 7.99645L4.00265 0.40635Z" fill="#9166F0"/>
<path d="M0.552361 1.02252C0.225089 1.45586 0.0341797 1.99075 0.0341797 2.55273V23.4408C0.0341797 24.0027 0.225089 24.5376 0.552361 24.971L12.6137 13.0001L0.552361 1.02252Z" fill="#9166F0"/>
<path d="M22.6501 10.7725L19.2137 8.86309L15.041 13.0001L19.2137 17.1438L22.6569 15.2344C23.4819 14.774 23.9728 13.9412 23.9728 13.0068C23.966 12.0589 23.4751 11.2261 22.6501 10.7725Z" fill="#9166F0"/>
<path d="M13.8276 14.2054L2.01855 25.9325C2.20946 25.9799 2.40719 26.0002 2.60492 26.0002C3.08901 26.0002 3.57992 25.8648 4.00265 25.5872L17.6526 18.0038L13.8276 14.2054Z" fill="#9166F0"/>
<path d="M71.9481 7.59509C68.6536 7.59509 65.9758 10.0991 65.9758 13.5554C65.9758 16.994 68.6536 19.5156 71.9481 19.5156C75.2426 19.5156 77.9204 16.994 77.9204 13.5554C77.9204 10.1167 75.2426 7.59509 71.9481 7.59509ZM71.9481 17.1703C70.1511 17.1703 68.5832 15.6714 68.5832 13.5554C68.5832 11.404 70.1335 9.9404 71.9481 9.9404C73.7627 9.9404 75.313 11.404 75.313 13.5554C75.2954 15.6714 73.7451 17.1703 71.9481 17.1703ZM87.9448 8.93526H87.8567C87.2753 8.22991 86.1478 7.59509 84.7208 7.59509C81.7434 7.59509 79.0127 10.2225 79.0127 13.573C79.0127 16.9058 81.7434 19.5156 84.7208 19.5156C86.1478 19.5156 87.2753 18.8808 87.8567 18.1578H87.9448V19.0219C87.9448 21.2966 86.7292 22.5134 84.7736 22.5134C83.1704 22.5134 82.1839 21.3672 81.7787 20.3973L79.506 21.3495C80.1578 22.9366 81.902 24.8763 84.7912 24.8763C87.8567 24.8763 90.4465 23.0777 90.4465 18.6692V7.9654H87.9624L87.9448 8.93526ZM84.9498 17.1703C83.1528 17.1703 81.6377 15.6538 81.6377 13.573C81.6377 11.4745 83.1528 9.9404 84.9498 9.9404C86.7292 9.9404 88.121 11.4745 88.121 13.573C88.121 15.6714 86.7292 17.1703 84.9498 17.1703ZM58.9111 7.59509C55.6167 7.59509 52.9388 10.0991 52.9388 13.5554C52.9388 16.994 55.6167 19.5156 58.9111 19.5156C62.2056 19.5156 64.8835 16.994 64.8835 13.5554C64.8835 10.1167 62.2056 7.59509 58.9111 7.59509V7.59509ZM58.9111 17.1703C57.1142 17.1703 55.5462 15.6714 55.5462 13.5554C55.5462 11.404 57.0965 9.9404 58.9111 9.9404C60.7081 9.9404 62.2761 11.404 62.2761 13.5554C62.2585 15.6714 60.7081 17.1703 58.9111 17.1703ZM43.3901 9.41138V11.933H49.4329C49.2568 13.3614 48.7811 14.4018 48.0588 15.1248C47.1779 16.0065 45.8037 16.9763 43.3901 16.9763C39.6728 16.9763 36.7659 13.9786 36.7659 10.2578C36.7659 6.53705 39.6728 3.53929 43.3901 3.53929C45.3985 3.53929 46.8608 4.33281 47.9531 5.33794L49.7324 3.55692C48.2173 2.11094 46.2089 1 43.3901 1C38.2987 1 34 5.1616 34 10.2578C34 15.354 38.2811 19.5156 43.3901 19.5156C46.1385 19.5156 48.2173 18.6163 49.8381 16.9234C51.5118 15.2482 52.0227 12.9029 52.0227 11.0161C52.0227 10.4341 51.9698 9.8875 51.8818 9.42902L43.3901 9.41138ZM106.813 11.404C106.32 10.0638 104.805 7.61272 101.722 7.61272C98.6562 7.61272 96.1017 10.0286 96.1017 13.573C96.1017 16.9058 98.621 19.5332 102.004 19.5332C104.734 19.5332 106.32 17.858 106.972 16.8882L104.946 15.5304C104.276 16.5179 103.342 17.1703 102.021 17.1703C100.7 17.1703 99.7485 16.5531 99.1319 15.3716L107.095 12.0741L106.813 11.404ZM98.7091 13.379C98.6386 11.069 100.488 9.90513 101.827 9.90513C102.867 9.90513 103.748 10.4165 104.03 11.1748L98.7091 13.379ZM92.2258 19.1629H94.8332V1.65246H92.2258V19.1629ZM119.075 1.65246H112.821V19.1629H115.428V12.5326H119.075C121.964 12.5326 124.818 10.4341 124.818 7.0837C124.818 3.75089 121.964 1.65246 119.075 1.65246ZM119.145 10.0638H115.428V4.06831H119.145C121.101 4.06831 122.211 5.69063 122.211 7.06607C122.211 8.44152 121.101 10.0638 119.145 10.0638ZM126.263 19.1629H128.87V1.65246H126.263V19.1629ZM135.283 7.55982C133.398 7.55982 131.425 8.38862 130.614 10.2402L132.94 11.21C133.433 10.2402 134.349 9.92276 135.318 9.92276C136.675 9.92276 138.049 10.7339 138.067 12.1799V12.3562C137.591 12.0917 136.587 11.6862 135.336 11.6862C132.834 11.6862 130.297 13.0616 130.297 15.6362C130.297 17.9815 132.341 19.4803 134.649 19.4803C136.411 19.4803 137.379 18.6868 137.978 17.7699H138.067V19.1277H140.586V12.4091C140.603 9.30558 138.278 7.55982 135.283 7.55982V7.55982ZM134.966 17.1703C134.103 17.1703 132.922 16.7471 132.922 15.6891C132.922 14.3312 134.402 13.8199 135.688 13.8199C136.833 13.8199 137.379 14.0667 138.067 14.4018C137.873 16.0241 136.481 17.1703 134.966 17.1703ZM149.782 7.94777L146.787 15.548H146.699L143.598 7.94777H140.78L145.431 18.5634L142.77 24.4884H145.501L152.689 7.9654H149.782V7.94777Z" fill="#9166F0"/>
</svg>
