<svg width="60" height="60" viewBox="0 0 60 60" fill="none" xmlns="http://www.w3.org/2000/svg">
<circle cx="30" cy="30" r="30" fill="#FE6C9D"/>
<g clip-path="url(#clip0_72_317)">
<path d="M42.0234 26.4237C42.5628 26.4237 43 25.9865 43 25.4471V21.785C43 21.3636 42.7296 20.9896 42.3293 20.8576L30.7814 17.049C30.5824 16.9834 30.3675 16.9835 30.1686 17.0494L18.6695 20.858C18.2698 20.9904 18 21.364 18 21.785V25.4471C18 25.9865 18.4372 26.4237 18.9766 26.4237H19.709V36.1405H18.9766C18.4372 36.1405 18 36.5777 18 37.1171V41.0233C18 41.5627 18.4372 41.9999 18.9766 41.9999H34.5527C35.8484 41.9483 35.8475 40.0979 34.5527 40.0468H19.9531V38.0936H32.4043C32.9437 38.0936 33.3809 37.6564 33.3809 37.1171V26.4237H38.3613V28.2768C34.4941 29.5034 35.2614 35.1136 39.3624 35.2128C41.4668 35.2994 41.4676 38.2995 39.3623 38.3866C38.7383 38.3866 38.1696 38.0186 37.9137 37.4492C37.6925 36.9573 37.1145 36.7376 36.6226 36.9588C36.1307 37.1799 35.9111 37.7579 36.1322 38.2498C36.5618 39.2054 37.3863 39.9065 38.3613 40.1948V41.0233C38.4129 42.319 40.2633 42.318 40.3145 41.0233V40.2096C44.2267 39.027 43.4918 33.3622 39.3623 33.2596C37.2579 33.173 37.2569 30.1729 39.3623 30.0858C40.0007 30.0858 40.5745 30.4656 40.8241 31.0533C41.0348 31.5498 41.6082 31.7813 42.1046 31.5707C42.601 31.3599 42.8327 30.7866 42.6219 30.2901C42.1934 29.2809 41.3362 28.5467 40.3145 28.2623V26.4237H42.0234ZM19.9531 22.4903L30.4762 19.005L41.0469 22.4913V24.4706H19.9531V22.4903ZM27.5215 26.4237V36.1405H25.5684V26.4237H27.5215ZM21.6621 26.4237H23.6152V36.1405H21.6621V26.4237ZM31.4277 36.1405H29.4746V26.4237H31.4277V36.1405ZM31.4277 22.078C31.4277 22.6174 30.9905 23.0546 30.4512 23.0546C29.1558 23.0032 29.1562 21.1527 30.4512 21.1014C30.9905 21.1014 31.4277 21.5387 31.4277 22.078Z" fill="white"/>
</g>
<defs>
<clipPath id="clip0_72_317">
<rect width="25" height="25" fill="white" transform="translate(18 17)"/>
</clipPath>
</defs>
</svg>
