<svg width="240" height="270" viewBox="0 0 240 270" fill="none" xmlns="http://www.w3.org/2000/svg">
<g filter="url(#filter0_d_72_374)">
<rect x="35" y="15" width="170" height="200" rx="10" fill="white"/>
</g>
<path d="M35 25C35 19.4771 39.4772 15 45 15H195C200.523 15 205 19.4772 205 25V47.1285H35V25Z" fill="#EFF5FF"/>
<ellipse cx="57.8843" cy="31.0641" rx="4.90385" ry="4.81928" fill="#9166F0"/>
<ellipse cx="75.8658" cy="31.0641" rx="4.90385" ry="4.81928" fill="#FF6D9E"/>
<ellipse cx="93.8462" cy="31.0641" rx="4.90385" ry="4.81928" fill="#78BEFF"/>
<rect x="84.5381" y="171.323" width="70.9231" height="19.0803" rx="4.5" fill="#A27DF2" stroke="#7F4FE8"/>
<path d="M77.9343 67.4658L80.0934 71.7503C80.1517 71.8931 80.2976 71.9788 80.4435 72.0074L85.2576 72.6929C85.6661 72.75 85.812 73.2356 85.5202 73.4926L82.0482 76.806C81.9315 76.9202 81.8731 77.063 81.9023 77.2344L82.7484 81.9188C82.8068 82.3187 82.3983 82.6043 82.0482 82.4043L77.7301 80.1764C77.5842 80.0907 77.4092 80.0907 77.2925 80.1764L72.9744 82.4043C72.6243 82.5757 72.2158 82.2901 72.2741 81.9188L73.0911 77.2344C73.1203 77.0916 73.0619 76.9202 72.9452 76.806L69.4732 73.4926C69.1815 73.207 69.3565 72.75 69.7358 72.6929L74.5499 72.0074C74.6958 71.9788 74.8417 71.8931 74.9 71.7503L77.0591 67.4658C77.2633 67.1231 77.7593 67.1231 77.9343 67.4658Z" fill="#FFD48B"/>
<path d="M99.1843 67.4658L101.343 71.7503C101.402 71.8931 101.548 71.9788 101.694 72.0074L106.508 72.6929C106.916 72.75 107.062 73.2356 106.77 73.4926L103.298 76.806C103.182 76.9202 103.123 77.063 103.152 77.2344L103.998 81.9188C104.057 82.3187 103.648 82.6043 103.298 82.4043L98.9801 80.1764C98.8342 80.0907 98.6592 80.0907 98.5425 80.1764L94.2244 82.4043C93.8743 82.5757 93.4658 82.2901 93.5241 81.9188L94.3411 77.2344C94.3703 77.0916 94.3119 76.9202 94.1952 76.806L90.7232 73.4926C90.4315 73.207 90.6065 72.75 90.9858 72.6929L95.7999 72.0074C95.9458 71.9788 96.0917 71.8931 96.15 71.7503L98.3091 67.4658C98.5133 67.1231 99.0093 67.1231 99.1843 67.4658Z" fill="#FFD48B"/>
<path d="M120.434 67.4658L122.593 71.7503C122.652 71.8931 122.798 71.9788 122.944 72.0074L127.758 72.6929C128.166 72.75 128.312 73.2356 128.02 73.4926L124.548 76.806C124.432 76.9202 124.373 77.063 124.402 77.2344L125.248 81.9188C125.307 82.3187 124.898 82.6043 124.548 82.4043L120.23 80.1764C120.084 80.0907 119.909 80.0907 119.792 80.1764L115.474 82.4043C115.124 82.5757 114.716 82.2901 114.774 81.9188L115.591 77.2344C115.62 77.0916 115.562 76.9202 115.445 76.806L111.973 73.4926C111.681 73.207 111.857 72.75 112.236 72.6929L117.05 72.0074C117.196 71.9788 117.342 71.8931 117.4 71.7503L119.559 67.4658C119.763 67.1231 120.259 67.1231 120.434 67.4658Z" fill="#FFD48B"/>
<path d="M141.684 67.4658L143.843 71.7503C143.902 71.8931 144.048 71.9788 144.194 72.0074L149.008 72.6929C149.416 72.75 149.562 73.2356 149.27 73.4926L145.798 76.806C145.682 76.9202 145.623 77.063 145.652 77.2344L146.498 81.9188C146.557 82.3187 146.148 82.6043 145.798 82.4043L141.48 80.1764C141.334 80.0907 141.159 80.0907 141.042 80.1764L136.724 82.4043C136.374 82.5757 135.966 82.2901 136.024 81.9188L136.841 77.2344C136.87 77.0916 136.812 76.9202 136.695 76.806L133.223 73.4926C132.931 73.207 133.107 72.75 133.486 72.6929L138.3 72.0074C138.446 71.9788 138.592 71.8931 138.65 71.7503L140.809 67.4658C141.013 67.1231 141.509 67.1231 141.684 67.4658Z" fill="#FFD48B"/>
<path d="M162.934 67.4658L165.093 71.7503C165.152 71.8931 165.298 71.9788 165.444 72.0074L170.258 72.6929C170.666 72.75 170.812 73.2356 170.52 73.4926L167.048 76.806C166.932 76.9202 166.873 77.063 166.902 77.2344L167.748 81.9188C167.807 82.3187 167.398 82.6043 167.048 82.4043L162.73 80.1764C162.584 80.0907 162.409 80.0907 162.292 80.1764L157.974 82.4043C157.624 82.5757 157.216 82.2901 157.274 81.9188L158.091 77.2344C158.12 77.0916 158.062 76.9202 157.945 76.806L154.473 73.4926C154.181 73.207 154.357 72.75 154.736 72.6929L159.55 72.0074C159.696 71.9788 159.842 71.8931 159.9 71.7503L162.059 67.4658C162.263 67.1231 162.759 67.1231 162.934 67.4658Z" fill="#FFD48B"/>
<ellipse cx="120" cy="112.992" rx="18.7981" ry="18.4739" fill="#DCE3EE"/>
<rect x="96.2979" y="154.759" width="47.4038" height="4.81928" rx="2" fill="#DCE3EE"/>
<rect x="106.105" y="143.514" width="27.7885" height="4.81928" rx="2" fill="#DCE3EE"/>
<g clip-path="url(#clip0_72_374)">
<path d="M120.409 112.614C115.455 112.614 111.425 116.575 111.425 121.444C111.425 121.655 111.6 121.827 111.815 121.827H129.003C129.218 121.827 129.393 121.655 129.393 121.444C129.393 116.575 125.363 112.614 120.409 112.614Z" fill="white"/>
<path d="M120.409 111.799C122.782 111.799 124.706 109.908 124.706 107.576C124.706 105.244 122.782 103.354 120.409 103.354C118.036 103.354 116.112 105.244 116.112 107.576C116.112 109.908 118.036 111.799 120.409 111.799Z" fill="white"/>
</g>
<defs>
<filter id="filter0_d_72_374" x="0" y="0" width="240" height="270" filterUnits="userSpaceOnUse" color-interpolation-filters="sRGB">
<feFlood flood-opacity="0" result="BackgroundImageFix"/>
<feColorMatrix in="SourceAlpha" type="matrix" values="0 0 0 0 0 0 0 0 0 0 0 0 0 0 0 0 0 0 127 0" result="hardAlpha"/>
<feOffset dy="20"/>
<feGaussianBlur stdDeviation="17.5"/>
<feColorMatrix type="matrix" values="0 0 0 0 0.743472 0 0 0 0 0.800425 0 0 0 0 0.841667 0 0 0 0.25 0"/>
<feBlend mode="normal" in2="BackgroundImageFix" result="effect1_dropShadow_72_374"/>
<feBlend mode="normal" in="SourceGraphic" in2="effect1_dropShadow_72_374" result="shape"/>
</filter>
<clipPath id="clip0_72_374">
<rect width="18.7981" height="18.4739" fill="white" transform="translate(111.01 103.354)"/>
</clipPath>
</defs>
</svg>
