<svg width="119" height="55" viewBox="0 0 119 55" fill="none" xmlns="http://www.w3.org/2000/svg">
<path d="M23.2574 3.40341C22.2237 2.33439 20.9962 1.50536 19.5319 0.894486C18.0891 0.305434 16.4524 0 14.6866 0C12.5116 0 10.5089 0.370885 8.72151 1.09084C6.93414 1.81079 5.38365 2.83618 4.09157 4.167C2.7995 5.51964 1.78737 7.11226 1.07673 8.9885C0.366088 10.8647 0 12.9591 0 15.2717C0 16.7116 0.150742 17.9988 0.452226 19.0896C0.753711 20.2023 1.09826 21.1404 1.48589 21.904C1.87351 22.6894 2.26113 23.3003 2.67029 23.7802C3.05791 24.2384 3.3594 24.5657 3.55321 24.7402C3.89776 25.0238 4.24231 25.0456 4.58687 24.8493C4.90989 24.6529 5.21137 24.3475 5.46979 23.9548C5.7282 23.5621 5.92201 23.1476 6.07276 22.6894C6.2235 22.2313 6.30964 21.904 6.30964 21.6858C6.30964 21.4459 6.24503 21.2495 6.13736 21.0968C6.02969 20.9441 5.83588 20.9223 5.55593 21.0095C5.53439 20.9877 5.40518 20.8568 5.23291 20.6168C5.03909 20.3987 4.84528 20.0496 4.6084 19.5696C4.39306 19.0896 4.17771 18.4788 4.00543 17.737C3.83316 16.9952 3.72548 16.0571 3.72548 14.9663C3.72548 13.4609 3.94083 12.021 4.34999 10.6466C4.75915 9.29393 5.40518 8.09401 6.2881 7.06862C7.17102 6.04324 8.31235 5.2142 9.7121 4.60333C11.1119 3.99246 12.7915 3.68703 14.7512 3.68703C16.1725 3.68703 17.4 3.94883 18.4121 4.49425C19.4242 5.01785 20.2425 5.69417 20.8886 6.52321C21.5346 7.35224 21.9868 8.24673 22.2883 9.2503C22.5898 10.2539 22.719 11.2138 22.719 12.1519C22.719 13.5264 22.5467 14.7917 22.2022 15.9262C21.8576 17.0607 21.4054 18.0861 20.8455 18.9806C20.2856 19.8751 19.6611 20.6605 18.9504 21.3368C18.2398 22.0131 17.5076 22.5803 16.7754 23.0385C16.0217 23.4966 15.3111 23.8457 14.6005 24.1075C13.8898 24.3693 13.2653 24.522 12.7054 24.5875V8.44308C12.7054 7.83221 12.447 7.30861 11.9517 6.89409C11.4564 6.45776 10.7888 6.2614 9.99205 6.2614C9.6475 6.2614 9.34601 6.34867 9.0876 6.50139C8.82918 6.65411 8.69998 6.87227 8.69998 7.11226C8.69998 7.28679 8.74305 7.48314 8.80765 7.70131C8.87225 7.91948 8.91532 8.24673 8.91532 8.70488V34.5577C8.91532 34.7541 8.97993 34.9286 9.1522 35.1031C9.30295 35.2777 9.49676 35.4304 9.73364 35.5395C9.97052 35.6704 10.2289 35.7795 10.5089 35.8449C10.7888 35.9322 11.0903 35.9758 11.3703 35.9758C11.7364 35.9758 12.0594 35.8885 12.3178 35.714C12.5977 35.5395 12.7269 35.2559 12.7269 34.8413V28.3181C14.5143 27.9909 16.2586 27.3364 17.9168 26.4201C19.5749 25.482 21.0393 24.3039 22.3098 22.8858C23.5804 21.4677 24.5925 19.8532 25.3678 18.0206C26.1215 16.188 26.5091 14.2027 26.5091 12.0428C26.5091 10.2975 26.2291 8.66125 25.6692 7.19952C25.0663 5.7378 24.2695 4.47243 23.2574 3.40341Z" fill="#161828"/>
<path d="M118.16 16.3843C117.687 15.9479 117.062 15.7516 116.244 15.7516C115.899 15.7516 115.598 15.8388 115.339 15.9916C115.081 16.1443 114.952 16.3406 114.952 16.5806C114.952 16.7552 114.973 16.9515 115.038 17.1697C115.102 17.3878 115.124 17.7151 115.124 18.1732V29.2343C115.124 29.6925 115.081 30.1506 114.995 30.5651C114.909 31.0015 114.779 31.3724 114.586 31.6778C114.392 32.0051 114.155 32.245 113.832 32.4414C113.53 32.6159 113.143 32.725 112.669 32.725C112.195 32.725 111.808 32.6377 111.506 32.4632C111.205 32.2887 110.968 32.0487 110.796 31.7433C110.623 31.4378 110.494 31.0669 110.429 30.6306C110.365 30.1943 110.322 29.7143 110.3 29.2125V17.9114C110.3 17.3224 110.063 16.7988 109.59 16.3843C109.116 15.9479 108.47 15.7516 107.651 15.7516C107.307 15.7516 107.005 15.8388 106.747 15.9916C106.51 16.1443 106.381 16.3406 106.381 16.5806C106.381 16.7552 106.402 16.9515 106.467 17.1697C106.532 17.3878 106.553 17.7151 106.553 18.1732V29.2343C106.553 29.6925 106.51 30.1506 106.424 30.5651C106.338 31.0015 106.209 31.3724 106.015 31.6778C105.821 32.0051 105.584 32.245 105.261 32.4414C104.96 32.6159 104.572 32.725 104.098 32.725C103.581 32.725 103.151 32.6159 102.828 32.4196C102.505 32.2232 102.268 31.9614 102.096 31.6342C101.923 31.3069 101.816 30.936 101.773 30.5215C101.708 30.0852 101.686 29.6707 101.686 29.2343V17.9114C101.686 17.3224 101.45 16.7988 100.976 16.3843C100.502 15.9479 99.8775 15.7516 99.0592 15.7516C98.7146 15.7516 98.4131 15.8388 98.1547 15.9916C97.8963 16.1443 97.7671 16.3406 97.7671 16.5806C97.7671 16.7552 97.8102 16.9515 97.8748 17.1697C97.9394 17.3878 97.9824 17.7151 97.9824 18.1732V26.3982C97.9824 26.42 97.9609 26.4636 97.9609 26.4854C97.8748 26.9654 97.7456 27.4235 97.5733 27.8599C97.401 28.2962 97.1641 28.6671 96.8842 28.9943C96.6042 29.3216 96.2597 29.5834 95.8505 29.7579C95.4414 29.9543 94.9891 30.0415 94.4508 30.0415C94.2785 30.0415 94.1062 30.0415 93.9555 30.0197C93.8047 30.0197 93.6325 29.9761 93.4602 29.9106C93.6971 29.0816 93.8693 28.2089 93.977 27.2926C94.0847 26.3982 94.1493 25.4818 94.1493 24.5655C94.1493 23.3656 94.0416 22.2748 93.8263 21.2494C93.6109 20.224 93.3094 19.3513 92.9218 18.6096C92.5342 17.8678 92.1035 17.3006 91.5867 16.8642C91.0698 16.4497 90.5315 16.2315 89.9716 16.2315C89.3255 16.2315 88.7441 16.3843 88.2488 16.7115C87.7535 17.017 87.3443 17.4533 87.0213 17.9769C86.6983 18.5005 86.4399 19.1332 86.2892 19.8313C86.1169 20.5294 86.0307 21.2712 86.0307 22.0348C86.0307 23.8238 86.3322 25.4818 86.9352 27.0308C87.5382 28.558 88.3995 29.8452 89.5409 30.827C89.2179 31.3942 88.8302 31.8523 88.378 32.2014C87.9258 32.5505 87.3443 32.725 86.6552 32.725C86.1815 32.725 85.7293 32.5941 85.2986 32.3323C84.8679 32.0705 84.5018 31.6778 84.1788 31.1542C83.8557 30.6306 83.5973 29.9761 83.4251 29.2125C83.2528 28.4489 83.1451 27.5326 83.1451 26.4854C83.1451 25.2637 83.2312 24.2165 83.382 23.3438C83.5327 22.4711 83.7265 21.7294 83.9634 21.1403C84.2003 20.5294 84.4372 20.0277 84.6956 19.635C84.954 19.2423 85.1909 18.8714 85.3847 18.5659C85.7077 18.3478 85.88 18.0642 85.9446 17.6715C86.0092 17.2788 85.9661 16.9079 85.8585 16.5152C85.7293 16.1443 85.557 15.817 85.277 15.5334C85.0186 15.2498 84.7171 15.1189 84.4156 15.1189C84.1357 15.1189 83.7265 15.3807 83.1882 15.9261C82.6498 16.4497 82.0899 17.2351 81.53 18.2387C80.9701 19.2423 80.4748 20.464 80.0657 21.9039C79.635 23.3438 79.4412 24.9801 79.4412 26.7909C79.4412 27.7508 79.5273 28.6671 79.6996 29.5398C79.5488 29.9979 79.3766 30.4561 79.1827 30.8706C78.9243 31.3942 78.6013 31.8523 78.2567 32.2014C77.8907 32.5505 77.4815 32.725 76.9862 32.725C76.6632 32.725 76.4263 32.6377 76.254 32.4414C76.0818 32.245 75.9741 32.0269 75.8879 31.7651C75.8018 31.5033 75.7587 31.2633 75.7372 31.0015C75.7157 30.7615 75.7157 30.5651 75.7157 30.4561V20.224C75.7157 19.6568 75.6511 19.0895 75.5434 18.4787C75.4142 17.8896 75.2204 17.3442 74.9189 16.8642C74.6174 16.3843 74.2082 15.9916 73.6699 15.6861C73.153 15.3807 72.4855 15.228 71.6672 15.228C71.0642 15.228 70.5043 15.3589 69.9875 15.5989C69.4706 15.8388 68.9969 16.1879 68.5231 16.6461C68.0709 17.0824 67.6402 17.606 67.2526 18.1951C66.8649 18.7841 66.4989 19.4386 66.1758 20.1367V17.9114C66.1758 17.3224 65.939 16.7988 65.4652 16.3843C64.9914 15.9479 64.3669 15.7516 63.5486 15.7516C63.2041 15.7516 62.9026 15.8388 62.6442 15.9916C62.3857 16.1443 62.2565 16.3406 62.2565 16.5806C62.2565 16.7552 62.2996 16.9515 62.3642 17.1697C62.4288 17.3878 62.4719 17.7151 62.4719 18.1732V26.8345C62.4073 27.009 62.3427 27.1836 62.2781 27.4017C61.7828 29.1034 61.1583 30.587 60.4261 31.8742C59.6724 33.1395 58.8541 34.274 57.9712 35.2776V17.9114C57.9712 17.3224 57.7343 16.7988 57.2605 16.3843C56.7868 15.9479 56.1623 15.7516 55.3439 15.7516C54.9994 15.7516 54.6979 15.8388 54.4395 15.9916C54.2026 16.1443 54.0734 16.3406 54.0734 16.5806C54.0734 16.7552 54.0949 16.9515 54.1595 17.1697C54.2241 17.3878 54.2457 17.7151 54.2457 18.1732V26.1364C54.0949 27.009 53.9011 27.8381 53.6427 28.6453C53.3843 29.4525 53.0828 30.1506 52.7382 30.7615C52.3937 31.3724 52.0061 31.8742 51.5969 32.245C51.1662 32.6159 50.714 32.7905 50.2187 32.7905C49.5081 32.7905 48.9482 32.4414 48.5605 31.7433C48.1729 31.0451 47.9791 30.0197 47.9791 28.6671C47.9791 27.6417 48.0006 26.7036 48.0652 25.8745C48.1298 25.0455 48.216 24.2383 48.3452 23.4747C48.4744 22.7111 48.6036 21.9475 48.7759 21.1839C48.9482 20.4204 49.142 19.5913 49.3789 18.675C49.4219 18.4787 49.5296 18.2387 49.6803 17.9333C49.8311 17.6278 49.9172 17.3224 49.9603 17.0388C50.0034 16.7552 49.9388 16.4934 49.7665 16.2752C49.5942 16.057 49.2066 15.9479 48.6036 15.9479C47.9576 15.9479 47.4623 16.0134 47.1608 16.1225C46.8593 16.2315 46.6224 16.3843 46.4717 16.5588C46.3209 16.7333 46.2348 16.9297 46.1917 17.1479C46.1487 17.366 46.0841 17.5842 46.0195 17.7805C45.6964 18.9368 45.395 20.1367 45.1365 21.3803C44.9212 22.4493 44.7058 23.6274 44.5336 24.9582C44.3613 26.2891 44.2536 27.5981 44.2536 28.8853C44.2536 28.9725 44.2536 29.0598 44.2536 29.1252C44.0813 29.7361 43.866 30.3033 43.6076 30.827C43.3492 31.3506 43.0261 31.8087 42.6816 32.1578C42.3155 32.5068 41.9063 32.6814 41.4111 32.6814C41.1311 32.6814 40.8727 32.6159 40.6573 32.485C40.442 32.3541 40.2697 32.1796 40.1405 31.9614C40.0113 31.7433 39.9252 31.5033 39.8606 31.2415C39.796 30.9797 39.7744 30.696 39.7744 30.4342V22.2748C39.7744 21.6857 39.5375 21.1621 39.0638 20.7476C38.59 20.3113 37.944 20.1149 37.1257 20.1149C36.7811 20.1149 36.4796 20.2022 36.2212 20.3549C35.9843 20.5076 35.8551 20.704 35.8551 20.9658C35.8551 21.053 35.8551 21.1403 35.8767 21.2276C35.8982 21.3149 35.9197 21.4239 35.9413 21.533C35.9628 21.6421 35.9843 21.773 36.0059 21.9475C36.0274 22.1003 36.0489 22.3184 36.0489 22.5584V30.1943C35.769 30.8924 35.4244 31.4815 34.9722 31.9832C34.52 32.485 33.9816 32.7468 33.314 32.7468C32.4527 32.7468 31.7851 32.3978 31.2898 31.6996C30.7945 31.0015 30.5576 29.9979 30.5576 28.6889C30.5576 26.8999 30.7945 25.3509 31.2898 24.0638C31.7851 22.7766 32.4096 21.7076 33.1848 20.8567C33.9601 20.0058 34.8215 19.3732 35.769 18.9805C36.7165 18.5659 37.664 18.3696 38.59 18.3696C38.8484 18.3696 39.0853 18.3914 39.3222 18.4132C39.5591 18.435 39.796 18.4569 40.0113 18.4569C40.2482 18.4569 40.4205 18.3696 40.5066 18.1951C40.5927 18.0205 40.6358 17.7369 40.6358 17.3224C40.6358 16.6679 40.4205 16.1661 40.0113 15.7952C39.6021 15.4243 39.0638 15.2498 38.3962 15.2498C36.9103 15.2498 35.4675 15.5552 34.0678 16.1661C32.668 16.777 31.4405 17.6496 30.3638 18.8059C29.2871 19.9622 28.4257 21.3585 27.7581 22.9947C27.1121 24.631 26.7891 26.4854 26.7891 28.558C26.7891 29.6052 26.9183 30.587 27.1551 31.4815C27.392 32.3978 27.7797 33.1832 28.2534 33.8377C28.7487 34.514 29.3517 35.0376 30.0839 35.4085C30.816 35.8012 31.6343 35.9975 32.6034 35.9975C33.5294 35.9975 34.3262 35.8012 35.0153 35.4085C35.7044 35.0158 36.3074 34.5358 36.7811 33.9686C37.1472 34.5794 37.6425 35.0812 38.2885 35.4521C38.9346 35.823 39.6667 35.9975 40.5281 35.9975C41.5833 35.9975 42.4878 35.7575 43.2846 35.2557C44.0383 34.7758 44.6843 34.1867 45.2227 33.4668C45.3519 33.6849 45.4596 33.9031 45.6103 34.0995C46.0625 34.7103 46.6009 35.1903 47.2469 35.5394C47.893 35.8666 48.6251 36.0411 49.4219 36.0411C50.4771 36.0411 51.3816 35.7139 52.1568 35.0812C52.9321 34.4485 53.6212 33.6195 54.2026 32.6377V38.921C53.3843 39.6409 52.6306 40.3609 51.8984 41.059C51.1662 41.7571 50.5202 42.5207 49.9603 43.3061C49.4004 44.1133 48.9697 44.986 48.6467 45.9678C48.3237 46.9277 48.1514 48.0404 48.1514 49.3057C48.1514 50.0911 48.2591 50.8329 48.4959 51.531C48.7328 52.2292 49.0558 52.8182 49.465 53.3418C49.8957 53.8654 50.391 54.2581 50.9509 54.5636C51.5323 54.869 52.1568 54.9999 52.8244 54.9999C53.4489 54.9999 54.0519 54.869 54.6548 54.629C55.2578 54.389 55.7962 53.9963 56.2699 53.4291C56.7437 52.8837 57.1313 52.1419 57.4328 51.2474C57.7343 50.3529 57.8635 49.2621 57.8635 47.9531V39.4009C58.5311 38.8119 59.1986 38.1792 59.8662 37.5029C60.5338 36.8266 61.1798 36.0411 61.8043 35.1685C61.9981 34.8849 62.2135 34.5794 62.4073 34.274C62.4504 34.514 62.4934 34.7321 62.6011 34.9067C62.7518 35.1903 62.9456 35.4085 63.1825 35.5612C63.4194 35.7139 63.6778 35.823 63.9362 35.8666C64.2162 35.9321 64.4746 35.9539 64.7115 35.9539C65.056 35.9539 65.336 35.8884 65.5083 35.7575C65.6805 35.6266 65.8313 35.4521 65.9174 35.2557C66.0036 35.0594 66.0466 34.8194 66.0682 34.5794C66.0682 34.3394 66.0897 34.0776 66.0897 33.8377V26.6163C66.1758 25.6346 66.4127 24.6528 66.8003 23.6929C67.1664 22.7111 67.5971 21.8385 68.0924 21.0749C68.5877 20.3113 69.083 19.6786 69.5998 19.1986C70.1167 18.7187 70.5474 18.4787 70.8919 18.4787C71.1288 18.4787 71.3226 18.5659 71.4518 18.7187C71.581 18.8714 71.6887 19.0677 71.7533 19.3295C71.8179 19.5913 71.861 19.8749 71.8825 20.224C71.904 20.5513 71.904 20.9221 71.904 21.3148V31.3505C71.904 31.9832 71.9902 32.5723 72.184 33.1395C72.3563 33.7068 72.6362 34.1867 73.0023 34.6231C73.3684 35.0594 73.7991 35.3648 74.2944 35.6266C74.7897 35.8666 75.3711 35.9975 76.0172 35.9975C77.0723 35.9975 77.9768 35.7575 78.752 35.2557C79.5273 34.754 80.1949 34.1213 80.7763 33.3795C80.8409 33.2922 80.9055 33.1832 80.9701 33.0959C81.0132 33.1613 81.0562 33.2268 81.0993 33.2704C81.6808 34.1213 82.4345 34.7758 83.3174 35.2776C84.2003 35.7793 85.277 36.0193 86.5045 36.0193C87.9043 36.0193 89.0887 35.6921 90.0362 35.0376C90.9837 34.3831 91.7589 33.5322 92.3619 32.4632C92.728 32.5941 93.0941 32.6814 93.5032 32.725C93.8909 32.7686 94.3 32.7905 94.7523 32.7905C95.5706 32.7905 96.3243 32.6596 96.9918 32.3978C97.401 32.245 97.7886 32.0269 98.1332 31.7869C98.1547 31.896 98.1978 32.0051 98.2193 32.136C98.3701 32.6377 98.5639 33.1177 98.8223 33.5759C99.0807 34.034 99.4468 34.4485 99.8775 34.8194C100.33 35.1903 100.868 35.4739 101.514 35.6703C102.16 35.8884 102.935 35.9757 103.84 35.9757C104.292 35.9757 104.766 35.9102 105.218 35.7794C105.67 35.6484 106.101 35.4739 106.51 35.2557C106.898 35.0376 107.264 34.7976 107.565 34.514C107.867 34.2304 108.104 33.9249 108.276 33.5977C108.448 33.9249 108.685 34.2304 108.965 34.514C109.245 34.7976 109.59 35.0376 109.956 35.2557C110.343 35.4739 110.752 35.6484 111.226 35.7794C111.678 35.9102 112.174 35.9757 112.712 35.9757C113.961 35.9757 114.995 35.7575 115.77 35.343C116.545 34.9285 117.148 34.3831 117.579 33.7286C118.01 33.0741 118.29 32.3541 118.44 31.5469C118.591 30.7397 118.677 29.9761 118.677 29.1907V17.9114C118.871 17.3224 118.634 16.8206 118.16 16.3843ZM54.3964 47.9749C54.3964 48.2149 54.3964 48.564 54.3964 48.9785C54.3964 49.393 54.3533 49.8511 54.2887 50.2657C54.2241 50.702 54.0949 51.0729 53.9011 51.3783C53.7073 51.7056 53.4274 51.8583 53.0397 51.8583C52.6521 51.8583 52.3291 51.5965 52.0922 51.0729C51.8553 50.5493 51.7477 49.8948 51.7477 49.1312C51.7477 47.6477 51.9845 46.4041 52.4798 45.3787C52.9751 44.3751 53.5996 43.4588 54.3964 42.6516V47.9749ZM90.5961 27.6417C90.0362 26.8999 89.5839 26.0273 89.2394 25.0237C88.8948 24.0201 88.7226 22.9729 88.7226 21.8603C88.7226 20.2895 89.0025 19.5259 89.5624 19.5259C89.8208 19.5259 90.0146 19.6786 90.1654 19.9622C90.3161 20.2676 90.4453 20.6603 90.5315 21.1839C90.6176 21.7076 90.6822 22.3184 90.7037 23.0384C90.7253 23.7583 90.7468 24.5219 90.7468 25.3728C90.7468 26.0927 90.6822 26.8563 90.5961 27.6417Z" fill="#161828"/>
</svg>
