<svg width="20" height="20" viewBox="0 0 20 20" fill="none" xmlns="http://www.w3.org/2000/svg">
<g clip-path="url(#clip0_72_107)">
<path d="M10.0008 20.0006C15.5235 20.0006 20.0006 15.5235 20.0006 10.0008C20.0006 4.47805 15.5235 0.000976562 10.0008 0.000976562C4.47805 0.000976562 0.000976562 4.47805 0.000976562 10.0008C0.000976562 15.5235 4.47805 20.0006 10.0008 20.0006Z" fill="#CB2027"/>
<path d="M10.8076 13.391C10.0516 13.3325 9.73399 12.9576 9.14111 12.5977C8.81526 14.3074 8.41703 15.9463 7.23751 16.8024C6.87298 14.2184 7.77192 12.2776 8.1894 10.2175C7.4778 9.01957 8.27496 6.60848 9.77588 7.2026C11.6232 7.9331 8.17656 11.6567 10.4903 12.1218C12.9059 12.6073 13.892 7.93042 12.3939 6.40919C10.2295 4.21289 6.09382 6.35927 6.60238 9.50336C6.72627 10.272 7.52058 10.5053 6.91968 11.566C5.53445 11.2592 5.12125 10.1666 5.17437 8.71012C5.26011 6.32594 7.31666 4.65657 9.37944 4.42555C11.9882 4.13357 14.4367 5.3835 14.7747 7.83737C15.1549 10.6069 13.597 13.6063 10.8076 13.391Z" fill="#F1F2F2"/>
</g>
<defs>
<clipPath id="clip0_72_107">
<rect width="20" height="20" fill="white"/>
</clipPath>
</defs>
</svg>
